<?xml version="1.0" encoding="UTF-8"?>
<svg id="Layer_1" xmlns="http://www.w3.org/2000/svg" version="1.1" viewBox="0 0 521 301">
  <!-- Generator: Adobe Illustrator 29.0.1, SVG Export Plug-In . SVG Version: 2.1.0 Build 192)  -->
  <path d="M425.9,96s0,0,0,0c0,0,0,0,0,.1h0Z"/>
  <path d="M114.8,100.4c-15.8-4-41.9,22.8-52.9,44.6-6.8,13.5-9.8,30.4,2.3,34.8,12.1,4.4,32.6-17.6,37.5-24.1,4.8-6.3,12.7-19.2,12.7-19.2,0,0,2.4-.4,4-.8,1.6-.4,4.2-1.1,4.2-1.1,0,0-3,5.3-5.7,10.7-3.2,6.4-11.9,28,4.9,34.4,16.1,6.1,38.8-19.4,40-19.9,0,0-6.7,17.4,3.8,20.1,11.5,3,24.2-11.8,24.2-11.8,0,0-2.7,11,6.3,12.1,16.2,1.9,44.6-39.3,44.6-39.3h-5.7v-.3s-14.5,18.6-21.5,22.5c-6.9,3.9-4.5-3-2.6-6,2.4-3.9,33.2-55.3,33.2-55.3h-16.4l-1.9,3s-3.4-5.2-9-4.8c-16.4,1-35.9,27.1-44.4,38.6-8.6,11.5-27.1,33.5-36.8,29.5-10.6-4.3,0-23.8,6.9-35.3,7.6-12.5,21-24.9,26.4-25,6.5,0,4,5.8,4,5.8,0,0-4.9-.6-8.4,3.9-2.5,3.2-4.6,7.8-2.2,10.3,3.9,4.1,8.9,0,11.9-4.7,9.3-14.3,2.5-21.8-4.9-22.9-15.6-2.3-30,17.7-40.9,25.2-7.5,5.2-10.7,4.8-10.7,4.8,0,0,13.2-25.8-2.8-29.8ZM185.7,146.8c4.7-8.7,11.2-17.1,19.5-27.5,8.3-10.5,12.6-11.3,15.1-11.2,2.1,0,2.4,2.3,2.4,2.3,0,0-18.1,31.7-24.8,40.7h0c-2.2,3.1-4.1,5.6-5.7,7.4-3.5,4.1-5.9,5.9-7.9,6.4-1,.3-2.3.2-3.1-.3-3-1.9-.7-8.5,4.5-17.9ZM108.5,136.5c-.2.5-5.5,9.1-9.8,14.7-4.8,6-13.5,15.1-18.6,13.2-8.1-3,.5-20.5,6.3-29,5.8-8.6,6.6-9.7,6.8-9.9.2-.2.3-.5.5-.2,0,.3,2,4.1,5.9,6.6,4.1,2.6,8.1,3.8,8.4,3.9h0c.3.2.5.3.3.8ZM115.2,123.1c-1.6,4-2.9,6.4-3.2,7-.5.9-1.6.6-1.6.6-1.3,0-11.1-2.4-11.1-10.3,0-7.7,11-15.4,15.3-12.1h0c4,3.1,2.1,10.8.6,14.8Z"/>
  <path d="M226,223.4c-.1,0-.3-.2-.4-.3,0,0,.1.2.2.3h.2Z"/>
  <path d="M200.3,202.6c-9.9-6.1-22.6-10.1-37.2-10.2-37.6-.3-78.5,17.9-106.2,18.1-32.6.3-34.3-24.9-31.8-38.7,5.3-29.7,26.4-58.1,40-73.1,13.6-15,27.9-26.6,39.7-29.5,11.8-3,10.7,6,9.2,7.2-1.5,0-4.4.4-5.9,1.5-2.6,1.8-5.9,5.1-6.1,10.1-.3,7.8,9.8,9.2,17.2-7.2,5-11.2-3-18.8-9.5-19.5-9-1-22.9,2.1-39.4,12.7C41.4,92.5,3,133.4,2,178.8c-.6,26,16.4,40.6,39.6,40.6s54.7-14.2,85.6-14.6c19.1,0,31.4,6.5,37.7,17.4,0,0,6.1-10.4,20-10.9,13.5-.5,28.4,3.2,40.8,11.7-4.2-6-15.7-14.6-25.3-20.5Z"/>
  <path d="M500.2,76.9h0c-11.5,7.2-27.4,14-42.6,12.5-3.9,4-8,8.6-12.2,13.7,26.5,5.3,49.7-11.2,62-25.1,7.7-8.7,11.5-16.5,11.5-16.5,0,0-7.3,8.1-18.7,15.4Z"/>
  <path d="M455,196.9c2.5-4,32.9-55.6,32.9-55.6h-16.4l-2.7,4.1s-3.3-6-8.9-5.9c-9.6.2-19.3,7.5-30.5,20.3-8.2,9.4-21.9,30.2-21.9,30.2,0,0-10.5,16.2-15.8,14.9-9-2.2,7.5-35.6,7.5-35.6,0,0,8.7-5.4,20-14.9,7.1-6,15.4-14.3,22.9-21.9,6.8-6.9,15-16.4,22.6-26.7-2,.3-4,.5-6,.6-6.9,9.1-14.3,17.3-20.5,23.7-9.3,9.6-17.8,17.4-24.1,22.5-6,4.8-9.8,6.9-9.8,6.9,0,0,11.4-23.3,30.3-49.1,18.9-25.8,45.5-49.8,43.4-38.4-.6,3.3-2.6,7.9-5.7,13.5,2.1-.4,4.3-1,6.2-1.6,4.6-9.4,6-17.2,2.7-19.4-13.9-9.2-49.3,28.7-67,50.7-17.7,22-33.8,55.6-33.8,55.6,0,0-2.8,1.2-5.8,1.8-1.9.4-2.8.3-3.1.2-.2,0-.2-.2-.2-.2,0,0,15.6-29.1-.4-33-15.5-3.7-42.1,24.8-51.7,44.6-6.4,13.6-10.2,30.7,1,34.8,12.1,4.4,32.6-17.6,37.5-24.1,4.9-6.3,10.9-17.1,10.9-17.1,0,0,3-.2,4.6-.4,3.1-.4,4.6-.8,4.6-.8,0,0-2,5.3-4.2,11.9-4.1,12.4-7.6,30.1,6.8,30.9,9.2.6,22.8-16.2,22.8-16.2,0,0-3.7,14.9,8.3,16.2,8.9,1,21.8-12.7,21.8-12.7,0,0-2.9,11.8,6.1,12.9,7.7.9,18.6-8.1,27.6-18,9.7-10.8,17.3-22.7,17.3-22.7h-5.7s-12.6,19.1-21.4,24.2c-7.2,4.2-4.8-2.6-2.6-6l.2-.2ZM363.4,177.5c-.3.5-4.4,7.6-8.7,13.2-4.8,6-13.4,15.1-18.5,13.2-8.1-3.1.8-20.7,6.6-29.2,5.8-8.5,6.4-9.1,6.6-9.3.2-.2.3-.5.5-.2,0,.3,2,3.8,5.7,6.8,3.8,3.1,7.2,4.8,7.5,4.8h0c.3.2.5.3.3.8ZM367,171.1c-.6.8-.9.9-2,.6-1.9-.5-9.5-4.1-9.5-12,0-7.7,11-15.4,15.3-12.1,4.1,3,2.1,10.7.6,14.7-1.6,4-4.1,8.2-4.4,8.8ZM441.2,190.2c-2.1,3-4,5.7-5.6,7.5-3.5,4-5.8,5.8-7.7,6.3-1,.3-2.3.2-3.1-.3-3-1.8-.9-8.8,4.3-18.2,4.7-8.6,10.1-17.3,19.1-27.2,9-9.9,12.5-10.4,15-10.3,2.1,0,2.4,2.3,2.4,2.3,0,0-.2.5-.5,1.1h0c-3,5.1-17.9,30.6-23.9,38.8Z"/>
  <path d="M320.2,168.2c8-23-1.5-29.2-8.8-28.7-8.1.7-22.5,7.9-30.3,23.8-7.8,15.9-7.8,25.7-7.8,25.7,0,0,4.2-4.5,10.5-9.2,6.2-4.8,11-6.4,11-6.4,0,0,1.2-5.8,4.1-11.9,2.8-5.9,7.3-12.1,12.9-13.5,11.4-2.9,5.9,17.7-2.4,31.2-4.5,7.2-20.3,28-33.9,28s-16.3-13.1-13.4-25.4c2.9-12.3,6.8-27.9,26.8-56.2,19.9-28.4,41.4-45.2,53.9-52.2,12.8-7.2,18-4.1,18-4.1,0,0-16.4,10-25.7,22.1-8.9,11.5-14.3,24.6-10.1,30.9,4,6.1,17.7,6.2,33-15.8,15.1-21.7,11.3-34.6,11.3-34.6,0,0,1.9-.6,3.1-.8,7.3-1,13.2,1,22.3,5.7,9.5,4.9,18.7,12.7,31.2,19.1,3.7-4.1,8-8.5,12.3-12.7-17-8.2-29.7-20-46.3-21.1-14.4-1-25.8,4.3-25.8,4.3,0,0-4.4-6-17.9-4.1-13.6,1.9-55.4,19.4-91,76.3-32.2,51.5-17.1,81,6,80.7,25.1-.3,49-28.2,57-51.2ZM364.3,73.8c0,0,1.6,5.8-3.5,18-4.3,10.2-10.4,17.4-16.6,22.9-7.8,7-12.1,6.7-14,5.4-4.9-3.8,1.7-17.6,13-30.1,11.2-12.4,20.9-16.3,20.9-16.3h0Z"/>
  <polygon points="247.1 116.3 262.6 116.3 271.3 102.1 255.8 102.1 247.1 116.3"/>
  <polygon points="249.9 23 269.9 23 269.9 40.3 278.5 40.3 278.5 1.2 269.9 1.2 269.9 15.4 249.9 15.4 249.9 1.2 241.4 1.2 241.4 40.3 249.9 40.3 249.9 23"/>
  <polygon points="321.5 33 298.3 33 298.3 24 313.8 24 313.8 16.5 298.3 16.5 298.3 8.7 320.9 8.7 322 1.3 289.8 1.3 289.8 40.4 289.8 40.4 322.6 40.4 321.5 33"/>
  <polygon points="211.4 40.3 220 40.3 220 8.8 233 8.8 233 1.2 198.3 1.2 198.3 8.8 211.4 8.8 211.4 40.3"/>
  <polygon points="364 260.1 364 286.7 345.2 260.1 336.4 260.1 336.4 299.2 344.7 299.2 344.7 272.3 363.8 299.2 372.4 299.2 372.4 260.1 364.1 260.1 364 260.1"/>
  <path d="M302.8,260.1l-15.6,39.2h8.9l3.3-8.7h17.2l3.3,8.7h9l-15.6-39.2h-10.5ZM302.3,283.1h0l5.8-15.5,5.8,15.5h-11.6Z"/>
  <polygon points="399 278.4 388.6 260.1 378.9 260.1 394.6 286.3 394.6 299.2 403.1 299.2 403.1 286.1 418.6 260.1 409.2 260.1 399 278.4"/>
  <path d="M280.9,261.8c-2.1-1.1-4.6-1.6-7.5-1.6h0c0,0-20.1,0-20.1,0v39.2h8.5v-14.3h11.6c3,0,5.5-.5,7.5-1.6,2.1-1.1,3.7-2.6,4.7-4.5,1.1-1.9,1.6-4,1.6-6.3s-.5-4.5-1.6-6.3c-1.1-1.9-2.6-3.4-4.7-4.5ZM277.1,276c-.9.9-2.3,1.3-4,1.3h-11.4v-9.7h11.4c1.7,0,3.1.4,4,1.3.9.8,1.4,2,1.4,3.6s-.5,2.8-1.4,3.6Z"/>
  <path d="M124.5,292c-4.1,0-4.9-.5-6.8-1.7-2.1-1.1-3.7-2.6-4.8-4.6-1.1-1.9-1.7-4.1-1.7-6.3s.6-4.5,1.8-6.3c1.2-1.9,2.8-3.4,4.8-4.6,2-1.1,4.3-1.7,6.7-1.7s3.7.4,5.4,1.1,3.3,1.8,4.8,3.4l5.4-5.9c-1.8-2-4-3.6-6.7-4.7-2.8-1.1-5.8-1.6-8.9-1.6s-7.9.9-11.3,2.7-5.9,4.2-7.8,7.2c-1.9,3.1-2.9,6.5-2.9,10.3s.9,7.2,2.8,10.3c1.9,3.1,4.5,5.6,7.8,7.2,3.4,1.8,7.1,2.7,11.4,2.7v.3c3.3,0,6.2-.5,9-1.6,2.8-1,5.1-2.6,6.8-4.7l-5.4-5.8c-2.9,2.9-6.2,4.3-10.3,4.3Z"/>
  <path d="M176.4,261.8c-3.2-1.7-6.7-2.6-10.8-2.6s-7.6.9-10.8,2.6c-3.2,1.7-5.7,4.2-7.4,7.2-1.8,3.1-2.7,6.5-2.7,10.5s.9,7.4,2.7,10.5c1.8,3.1,4.3,5.5,7.4,7.2,3.2,1.7,6.7,2.6,10.8,2.6s7.6-.9,10.8-2.6c3.2-1.7,5.7-4.2,7.4-7.2,1.8-3.1,2.7-6.5,2.7-10.5s-.9-7.4-2.7-10.5c-1.8-3.1-4.3-5.5-7.4-7.2ZM176.1,286.1c-1,1.9-2.5,3.4-4.3,4.5-1.8,1.1-3.9,1.6-6.2,1.6s-4.4-.5-6.2-1.6c-1.8-1.1-3.3-2.6-4.3-4.5-1-1.9-1.6-4.1-1.6-6.5s.5-4.6,1.6-6.5c1-1.9,2.5-3.4,4.3-4.5,1.8-1.1,3.9-1.6,6.2-1.6s4.4.5,6.2,1.6c1.8,1.1,3.3,2.6,4.3,4.5,1,1.9,1.6,4.1,1.6,6.5s-.5,4.6-1.6,6.5Z"/>
  <polygon points="218.9 287.2 207.2 260 195.7 260 195.7 299.2 203.9 299.2 203.9 271.2 215.8 298.7 221.6 298.7 233.6 270.5 233.6 299.2 241.8 299.2 241.8 260.1 241.9 260 230.4 260 218.9 287.2"/>
</svg>