<?xml version="1.0" encoding="UTF-8"?>
<svg id="Layer_1" xmlns="http://www.w3.org/2000/svg" version="1.1" viewBox="0 0 1730.9 649.9">
  <!-- Generator: Adobe Illustrator 29.0.1, SVG Export Plug-In . SVG Version: 2.1.0 Build 192)  -->
  <defs>
    <style>
      .st0 {
        fill: #fff;
      }
    </style>
  </defs>
  <path class="st0" d="M185.4,274.4c-8,7.3-19.6,9.7-26.8,10.6-14.8,1.8-30-3.1-39.8-14.8-8-9.6-12.1-22-19.9-31.9-12.3-15.7-32-26-52.3-22.4-40.1,7.3-58.4,54.1-35.7,86.6,32.4,46.4,105.4,38.4,142.8,6.2,11.7-10,22.5-21.1,31.7-34.3"/>
  <path class="st0" d="M1545.5,274.4c8,7.3,19.6,9.7,26.8,10.6,14.7,1.9,30-3,39.7-14.8,8-9.6,12.1-22,19.9-31.9,12.4-15.7,32.1-26,52.4-22.4,40.1,7.3,58.3,54.1,35.6,86.6-32.4,46.4-105.4,38.4-142.8,6.2-11.7-10-22.6-21.1-31.7-34.3"/>
  <path class="st0" d="M1411.9,26.9h-97.7c-10.5.3-19.2,10-19.7,20-.5,10.6,8.7,21.2,19.7,21.7h97.7c10.5-.3,19.2-10,19.7-20,.5-10.6-8.7-21.2-19.7-21.7"/>
  <path class="st0" d="M801.7,235.1c-1.3-5.5-2-11-2.4-16.5v-29.4c1-35.4,7.6-97.8-40.5-97.8s-51.7,27.3-57.2,36.3c-.8-24.9-20.4-43-50.4-43s-30.5,15.2-30.5,15.2c0,0,18.7,6.5,18.7,31.6.2,18,0,105.5,0,105.8.7,15.5,11.6,30,30.9,30s31.4-14.9,31.4-30.1v-77.6c2.7-12.7,9.8-25.6,20.6-25.6s14.7,15.5,14.8,15.5v75.1c0,2.4.3,4.8.7,7.1.7,3.9,1.9,7.6,3.6,10.9,7.4,15.1,23.9,25,46.1,25s30.5-15.2,30.5-15.2c0,0-11.2-4-16.3-17.4"/>
  <path class="st0" d="M1263.8,235.1c-1.4-5.5-2.1-11-2.4-16.5V32.7c0-18.1-14.6-32.7-32.7-32.7s-32.7,14.7-32.7,32.7v164.7c.2,14.8-1.3,30,5.7,43.6,7.4,15.1,25.7,26.8,47.8,26.8s30.5-15.2,30.5-15.2c0,0-11.2-4-16.3-17.4"/>
  <path class="st0" d="M532.1,89.8c-49.1,0-89,39.8-89,89s39.8,89,89,89,89-39.8,89-89-39.8-89-89-89M532.8,230h-.4c-16.8-.4-25.2-19.7-25.2-51.2s10.7-50.9,25.2-51.2h.4c14.5.4,25.2,19.7,25.2,51.2s-8.4,50.9-25.2,51.2"/>
  <path class="st0" d="M1001.8,235.1c-1.4-5.5-2.1-11-2.4-16.5V32.7c0-18.1-14.6-32.7-32.7-32.7s-32.7,14.7-32.7,32.7v88.1c-8-11-25.4-29.5-52.7-29.5-75.2,0-80,133.9-28.4,167,14.5,9.3,36.5,11.7,53.1,7.4,11.5-3,29.5-14.2,32.4-27.7.4,1,.9,2,1.4,2.9,7.4,15.1,25.7,26.8,47.8,26.8s30.5-15.2,30.5-15.2c0,0-11.2-4-16.3-17.4M904.2,224.3h-.4c-16.8-.3-25.2-17.1-25.2-44.6s10.7-44.3,25.2-44.6h.4c14.6.3,25.2,17.2,25.2,44.6s-8.4,44.3-25.2,44.6"/>
  <path class="st0" d="M1172.2,212.7s-9.6,13.2-46.9,13.2-45.2-29-45.2-29c54.3,0,99.8-3.6,99.8-47.6s-49.7-58.4-79.1-58.4c-48.6,0-84.2,38.8-84.2,90s46.3,86.9,84.7,86.9c67.7,0,70.9-55,70.9-55M1076.6,168.7c1.9-14,5.3-31.7,17.9-39.9,10.5-6.8,25.2.9,25.4,14.1.2,13.8-8.7,23.3-21.2,25.9-1.3.3-22.3,1.3-22.1,0"/>
  <path class="st0" d="M1434.1,212.7s-9.6,13.2-46.9,13.2-45.2-29-45.2-29c54.3,0,99.8-3.6,99.8-47.6s-49.7-58.4-79.1-58.4c-48.6,0-84.2,38.8-84.2,90s46.3,86.9,84.7,86.9c67.7,0,70.9-55,70.9-55M1338.5,168.7c1.9-14,5.3-31.7,17.9-39.9,10.5-6.8,25.2.9,25.4,14.1.2,13.8-8.7,23.3-21.2,25.9-1.3.3-22.3,1.3-22.1,0"/>
  <path class="st0" d="M1557,217.5h-37.3c2.7,0,30.3-23.3,39.5-31,24-20.3,67.1-49.7,54.5-87.7v.3c-2.3-9-9.2-14.3-9.2-14.3,0,0-2.6,7.4-11.5,10.7-3.6.9-7.2,1.5-10.9,1.8h-104.3c-13.7,0-25.2,11-25.4,24-.2,13.1,10.7,23.6,24.6,23.8l59.1.4c-27.4,15.3-60.1,33.4-76.7,61-9.5,15.9-19.6,40.3-15.8,59.1,13.1-11.6,47.6-22.9,73.8-17.4,9.8,2.1,20.3,7.1,28.8,12.4,49.2,30.8,78.8-29.4,55.2-55.9,0,0-13.4,13.1-44.4,13.1"/>
  <path class="st0" d="M448,254.9c-30.2-33.1-39.6-88.1-41.5-124.7-1.6-31.6.1-86.3,25-102.2-8.3-10.5-24.8-14.7-37.3-14.7-28.1,0-41.6,18.7-51.2,32.1-3.2,4.4-50.4,69.6-50.4,69.6,0,0-39.7-61.4-44.6-68.8-6.7-10.2-19.4-28.9-41.6-32.1-9.6-1.4-34.4-2.7-47.8,15.9,23.3,18.6,22.7,66,17.6,98.4-15.2,97.1-56.5,106.1-56.5,106.1,21.2,57.2,75.7,34.6,91.1-11,10-29.6,16.4-67.1,17.9-98.2l59.8,91.8s67.7-91.5,67.7-91.4c-11.2,161.8,44.4,207.7,93,207.7s65.2-44.5,65.2-44.5c-26.3-1.6-49.3-14.8-66.6-33.8"/>
  <path class="st0" d="M599.7,307.5c.6,2.4.9,4.7,1,7.1v85.7c.2,7,6.7,12.9,13.4,13.2,7.1.4,14.2-5.8,14.5-13.2v-76.5c0-6.3.6-12.8-2.4-18.7-3.2-6.5-11-11.5-20.5-11.5s-13.1,6.5-13.1,6.5c0,0,4.8,1.7,7,7.5"/>
  <path class="st0" d="M1487,399.5c-.6-2.4-.9-4.7-1-7.1v-85.6c-.2-7.1-6.7-12.9-13.5-13.2-7.1-.4-14.2,5.8-14.5,13.2v76.5c0,6.3-.6,12.8,2.4,18.7,3.2,6.5,11,11.5,20.5,11.5s13.1-6.5,13.1-6.5c0,0-4.8-1.7-7-7.5"/>
  <path class="st0" d="M980.6,337c-14.6,0-23.2,12.2-25.6,16.2h0v-7.4c-.2-7-6.7-12.3-13.4-12.6-7.1-.4-14.2,5.3-14.5,12.6v54.3c.2,7,6.7,12.9,13.4,13.2,7.1.4,14.2-5.8,14.5-13.2v-32.5h0c1.2-5.8,4.4-11.6,9.2-11.6s6.6,7,6.6,7v37.1c.2,7,6.7,12.9,13.4,13.2,7.1.4,14.2-5.8,14.5-13.2v-19.4c0-19.9,2-43.9-18.2-43.8"/>
  <path class="st0" d="M1338.3,337c-14.6,0-23.2,12.2-25.6,16.2h0v-7.4c-.2-7-6.7-12.3-13.4-12.6-7.1-.4-14.2,5.3-14.5,12.6v54.3c.2,7,6.7,12.9,13.4,13.2,7.1.4,14.2-5.8,14.5-13.2v-32.5h0c1.2-5.8,4.4-11.6,9.2-11.6s6.6,7,6.6,7v37.1c.2,7,6.7,12.9,13.4,13.2,7.1.4,14.2-5.8,14.5-13.2v-19.4c0-19.9,2-43.9-18.2-43.8"/>
  <path class="st0" d="M696.5,337c-14.6,0-23.2,12.2-25.6,16.2h0v-7.4c-.2-7-6.7-12.3-13.4-12.6-7.1-.4-14.2,5.3-14.5,12.6v54.3c.2,7,6.7,12.9,13.4,13.2,7.1.4,14.2-5.8,14.5-13.2v-32.5h0c1.2-5.8,4.4-11.6,9.2-11.6s6.6,7,6.6,7v37.1c0,7,6.7,12.9,13.4,13.2,7.1.4,14.2-5.8,14.5-13.2v-19.4c0-19.9,2-43.9-18.2-43.8"/>
  <path class="st0" d="M1236.9,333.5c-22,0-39.9,17.8-39.9,39.9s17.8,39.9,39.9,39.9,39.9-17.8,39.9-39.9-17.9-39.9-39.9-39.9M1237.2,396.3h0c-7.5-.2-11.3-8.8-11.3-22.9s4.8-22.8,11.3-22.9h0c6.5.2,11.3,8.8,11.3,22.9s-3.8,22.8-11.3,22.9"/>
  <path class="st0" d="M1088,344.9c-.2-7.4-7.2-13.5-14.2-13.8-7.5-.4-14.9,6.1-15.2,13.8v1.9c-3.5-4.9-11.3-13.2-23.6-13.2-33.7,0-35.8,60-12.7,74.8,6.5,4.2,16.3,5.3,23.8,3.3,4.2-1.1,10.4-4.7,13.2-9.3,1.7,5.9,7.6,10.4,13.6,10.7,7.5.4,14.9-6.1,15.2-13.8v-54.4M1045.3,393.2h0c-7.5-.1-11.3-7.7-11.3-20s4.8-19.8,11.3-20h0c6.5.1,11.3,7.7,11.3,20s-3.8,19.9-11.3,20"/>
  <path class="st0" d="M1445.4,344.9c-.2-7.4-7.2-13.5-14.2-13.8-7.5-.4-14.9,6.1-15.2,13.8v1.9c-3.5-4.9-11.3-13.2-23.5-13.2-33.7,0-35.8,60-12.7,74.8,6.5,4.2,16.3,5.3,23.8,3.3,4.2-1.1,10.4-4.7,13.2-9.3,1.7,5.9,7.6,10.4,13.6,10.7,7.5.4,14.9-6.1,15.2-13.8v-54.4M1402.7,393.2h0c-7.5-.1-11.3-7.7-11.3-20s4.8-19.8,11.3-20h0c6.5.1,11.3,7.7,11.3,20s-3.8,19.9-11.3,20"/>
  <path class="st0" d="M1188.2,352.4c-.3-7-5.8-12.4-12.7-13-.4,0-.8-.1-1.2-.1-6.2,0-14.1,5.4-14.1,12.2v25.8h0v22.8c.3,7,5.8,12.4,12.7,13,.4,0,.8.1,1.2.1,6.2,0,14.1-5.4,14.1-12.2v-21.6h0v-27"/>
  <path class="st0" d="M1188.1,317.5c0,7.7-6.2,13.9-13.9,13.9s-13.9-6.2-13.9-13.9,6.2-13.9,13.9-13.9,13.9,6.2,13.9,13.9"/>
  <path class="st0" d="M904.6,336c-8.3.3-12.4,6.5-18.1,14.3v-3.7c-.2-7-6.7-12.9-13.4-13.2-7.1-.4-14.2,5.8-14.6,13.2v53.7h0c.2,7,6.7,12.9,13.4,13.2,7.1.4,14-5.7,14.5-13h0v-34c.4-5,2.6-11.2,6.6-11.2,5.7,0-.2,13.8,12.8,13.8,18.7,0,20.7-34-1.4-33.1"/>
  <path class="st0" d="M847.5,388.5s-4.3,5.9-21,5.9-20.3-13-20.3-13c24.4,0,44.8-1.6,44.8-21.4s-22.3-26.2-35.5-26.2c-21.8,0-37.8,17.4-37.8,40.4s20.8,39,38,39c30.3,0,31.8-24.7,31.8-24.7M804.6,368.7c.9-6.3,2.4-14.2,8-17.9,4.7-3.1,11.3.4,11.4,6.3,0,6.2-3.9,10.4-9.5,11.6-.6.1-10,.6-9.9,0"/>
  <path class="st0" d="M776.1,398.5s-7.3,14.7-20.7,14.7-24.7-9.8-25.3-23.9c0-.1,0-20.5,0-37.5h-3.8c-2,0-5.4-1.2-5.4-6.3s3.9-6.2,5.8-6.2h3.3v-10.3c.4-7.3,7.4-13.5,14.5-13.2,6.7.3,13.4,6.1,13.6,13.2h0v10.3h11.8c1.6,0,5.4,1.1,5.4,6.3s-3.8,6.2-5.8,6.2h-11.4v31.3c0,10.1,8.7,15.4,18.1,15.4"/>
  <path class="st0" d="M1150.5,398.5s-7.3,14.7-20.7,14.7-24.7-9.8-25.3-23.9c0-.1,0-20.5,0-37.5h-3.8c-2,0-5.4-1.2-5.4-6.3s3.9-6.2,5.8-6.2h3.3v-10.3c.4-7.3,7.4-13.5,14.5-13.2,6.7.3,13.4,6.1,13.6,13.2h0v10.3h11.8c1.6,0,5.4,1.1,5.4,6.3s-3.8,6.2-5.8,6.2h-11.4v31.3c0,10.1,8.7,15.4,18.1,15.4"/>
  <path class="st0" d="M76.6,614.5c0,1,.7,1.7.7,2.7s-.5,2-1.2,2.8c-.9,1.1-2,2.1-2.6,3.3-2,4-4.6,7.6-8,10.8-1.8,1.7-3.8,2.7-5.9,3.8-2.6,1.5-5.1,3.3-7.7,4.8-2.6,1.5-5.7,2.5-8.9,2.5s-4.6-.3-6.7-.3-4.2.2-6.4.2c-4.4,0-4.3-.2-8.3-1.7s-7.8-5-10.6-8.3v3.1c0,1.1,0,3-.4,4.8-.4,2.1-1.3,4.1-3.5,4.1s-2.4-.4-3.7-1.4c-1.1-.9-1.6-2.3-1.9-3.5-.4-1.6-.5-2.7-.5-3.8,0-1.7.3-3.1.3-5.9v-12.3c0-5.4,0-14.4.4-17,.2-1.7.3-3.9,1-5.4.4-.8.6-1.3,1.5-2.2.4-.4,1.4-1.1,2.1-1.1s1.5.8,1.8,1.2c.8,1.2,1.5,3,1.7,4.4.2,1.7.4,5.5.4,9.6s.1,6.1.2,8.7c.2,2.3.6,4.6,1.7,6.3,1.3,2.1,2.9,3.5,4.2,5.6,1.5,2.3,2.5,3.6,5.5,4.1,1.7.3,6.8,1.5,9.3,1.5s3.1-1,5.3-2.1,5.3-.6,7.4-1.9c1.7-1,4.1-3.2,5-4.8s1.4-3.3,1.4-4.8-.2-2-.6-3.1c-.9-2.3-2.3-4.3-3.4-6.5-1.2-2.5-2-5.1-3.5-7.6-3-4.8-7.3-8.5-11-12.8-3.5-4.2-7.3-8.3-11.1-12.4-3.9-4.3-7.8-8.7-11.2-13.4-3.4-4.5-4.8-10.6-6.1-15.9-1.1-4.5-2.3-9.3-2.3-14s2.4-10.9,5.4-16c2.9-4.9,7.1-8.9,11.9-11.8,4.5-2.7,7.6-3.6,13.1-4.1,3.2-.3,4.2-1.7,7.9-1.7s4.3.6,6.6,1.1c2.1.4,4.6,1.6,6.9,2.5,2.8,1.1,5.4,2.2,7.2,4.1.2-3,.3-5.2,1-6.7.4-.8.6-1.3,1.5-2.2.4-.4,1.8-1.1,2.5-1.1s1.5.8,1.8,1.2c.8,1.2,1.5,3,1.7,4.4.3,2,.5,8.7.5,12.9s-.2,7.5-.2,9.8c0,5.5.6,7.8.5,12.7,0,2.3,0,8.8-3.8,8.8s-2.4-.4-3.7-1.4c-1.1-.9-1.6-2.3-1.9-3.5-.4-1.6-.5-2.7-.5-3.8,0-1.7.3-3.1.3-5.8v-7.4c0-1.9-.3-3.8-.9-5.4-.8-2.4-2-4.7-3.7-6.5-1.5-1.6-3.5-2.9-5.7-3.5-2.1-.6-4.6-1-7.1-1s-5.7.6-7.7,2.2c-1.6,1.3-2.2,3.3-3.2,5.1-1.3,2.3-2.2,4.3-2.9,6.8-.6,2.3-1.4,4-1.4,6.7s.9,2.6,1.1,3.6c.3,1.6-.2,3.3.2,4.8.5,2.1,3,3.6,4.5,5.1,1.8,1.8,2.4,4.1,3.8,6.1,1.8,2.6,4.1,4.8,6.4,6.9,1.9,1.7,3.8,3.3,5.6,5.1,3.6,3.6,7.5,6.9,10.9,10.8,1.6,1.8,2.6,4.3,4.3,6,.6.6,1.4.7,1.9,1.3.8.8,1.2,2,1.9,2.9,1.6,2,3.7,3.7,5.1,5.9,1.3,2,1.7,4.7,2.7,6.9.9,2.2,1.4,4.5,2.2,6.7.3.8.4,1.6.4,2.4,0,1.5-.4,3.1-.8,4.8-.2.8-.7,1.9-.7,2.7h0v-.5Z"/>
  <path class="st0" d="M182.2,508c2.1,0,6.1.1,6.1,3.3s-.2,2.3-1.1,3.6c-.7,1-1.7,1.5-2.7,1.9-1.5.5-2.5.6-3.4.6h-6.5c.2,1.6.5,3.1.5,4.8,0,2.5-.4,5-.4,7.5,0,3.8.7,7.6,1.2,11.4.5,3.8.6,7.6.7,11.4,0,3.1.1,6.3.3,9.4.2,3.3.6,6.7.6,10s-.9,6.6-.9,10v9.7c0,3.2,0,7.7-.5,11.6-.3,3.1-.1,6.2-.2,9.3-.1,3.2-.5,6.3-.5,9.5s1.1,6.8,1.1,10.2-.5,4.6-2.3,6.2c-2.8,2.5-6.3,3.5-10,3.5s-5.9-.9-8.7-1.9c-3-1.1-5.8-2.4-7.9-4.2-4.8-3.9-7.5-9.3-9.9-14.9-2.7-6.2-5.5-12.4-8-18.8-1.4-3.6-2.8-7.2-4.1-10.8-2.1-5.8-4.1-11.6-6-17.4-1.3-3.8-2.5-7.6-3.7-11.4-1-3.2-2.2-6.3-3.8-9.2-.5-1-1.1-2-1.6-2s-.8,1.9-.8,2.9,0,2.2,0,3c0,3.6.5,7,.5,10.6,0,6.9.7,13.8,1.2,20.8,0,2.1.2,4.2.2,6.2,0,4.6-.2,9.2-.2,13.9s-.5,10.8-.5,16.1,0,3.3.2,5c0,2-.4,4-.6,6,3.9,0,7.4-.2,9.3-.2s6.1,0,6.1,3.3-.3,2.3-1.1,3.6c-.7,1-1.7,1.6-2.7,1.9-1.5.5-2.5.6-3.4.6h-15.3c-2.4,0-6.8.2-9.2.2s-2.6,0-3.9-.2-3-.3-4.2-.9c-1.3-.7-2.6-2.6-2.6-3.4s0-1,.7-1.7c.8-.8,2.5-1.5,3.6-1.7,3-.6,8.2-1,9.4-1h2.1c0-9.1.7-17.7.7-27s0-5.3,0-7.9c-.4-9.4-.6-18.8-.6-28.2s0-10.9,0-16.3c0-6,.3-11.9.4-17.9.2-7.1.5-14.2.7-21.4h-6.4c-1.3,0-2.6,0-3.9-.2s-3-.3-4.2-.9c-1.3-.7-2.6-2.6-2.6-3.4s0-1,.7-1.7c.8-.9,2.5-1.5,3.6-1.7,3-.6,10.5-1,11.7-1s3.8-.1,6.5-.2c1.2-1.1,2.5-2,3.6-2.9,1.6-1.2,3.4-1.8,5.3-1.8,2.8,0,5.6,1.3,7,4,1.2,2.2,2.8,4.2,3.8,6.6,1.2,3,2,6.2,3.4,9.2,1.2,2.5,1.9,5.2,3,7.8,1.2,2.9,2.5,5.6,3.3,8.7.8,3,1.8,5.9,2.6,8.8.8,2.9.7,5.4,2.3,8,3.2,5.1,5.9,11.2,7.3,17.1.7,3,1.5,5.6,2.9,8.3,1.5,2.9,2,5.9,2.7,9.1.6,2.9,2,5.5,3.4,8.2.6,1.3,1.6,2.3,2.2,3.6.6,1.3.7,2.7,1.2,4.1.7,1.8,1.2,4,2,5.8.4.9.8,1.3,1.2,1.3s.8-.4,1.1-1.4c.2-.6.2-1.3.2-2,0-3.5-.2-7.1-.2-10.6,0-7.2.4-14.4,0-21.6-.3-6.7-1.4-13.1-1.4-19.8v-22.2c0-4.2-.3-8.4-.3-12.6s0-4.4.3-6.5c-2,0-4.3.2-6.2.2s-2.6,0-3.9-.2c-1.3-.2-3-.3-4.2-.9-1.3-.7-2.6-2.6-2.6-3.4s0-1,.7-1.7c.8-.9,2.5-1.5,3.5-1.7,3-.6,10.5-1,11.7-1h4.6c1.1-1.1,2.5-1.8,4.1-1.8s2.7.6,3.2,1.6c3.5-.1,6.8-.2,8.5-.2h0v-.6Z"/>
  <path class="st0" d="M243.2,585.5c0-.9-.4-3-.5-3.9-.5-3-1-5.1-1.1-7.9-.1-6.2-.2-12.7-.6-19-.1-3-.6-5.9-1.1-8.9-.5-3.3-1-6.7-1.1-10.1,0-1.1-.2-5.2-.5-8.2-.3-2.9-.8-4.8-1.8-4.8-1.6,0-3.6,3.7-3.8,4.6-.7,2.3-1.1,5.1-1.7,7.4-.3,1.2-.4,2.4-.5,3.5-.1,1.2-.3,2.5-.7,3.7-.9,2.5-1.1,5.3-1.5,7.9-.8,5.3-2.6,10.4-4.1,15.5-.7,2.4-1.1,4.8-1.6,7.3-.5,2.8-1,5.6-2.1,8.4-.4,1.1-1.3,4.8-1.3,6.2s.5.7,1.4.7c1.4,0,3.9-.2,4.6-.2,1.7,0,3.3-.2,4.9-.4,1.3-.2,2.6-.3,3.9-.3s3.2.2,5.1.2,2.3,0,3.2-.5c.5-.3.9-.8.9-1.4M294.2,641.5c0,1.2-.9,1.7-1.8,2.8-.8,1-2.2,1.6-3.5,1.9-2.2.5-3.7.6-5.3.6s-2.9,0-4.8,0-.9,0-1.7,0c-1,.4-2,.7-3,1-1.2.2-2.3.5-3.5.5-2.5,0-5.2-.4-7.5-1.2h-4.8c-4.8,0-8.9,0-10.6-.2-1.7-.2-3.9-.2-5.5-.9-1-.5-3.4-1.9-3.4-3.4,0-2.6,3.4-3.1,5.4-3.4,1,0,3.1-.2,5.8-.4-.2-1.5-.3-3.1-.4-4-.2-2-.3-3.9-.7-5.7-.2-.9-.5-1.7-.5-2.8s.4-2.3.4-3.2-.7-1.8-1-3.5c-.3-2.3-1-4.6-1.3-6.9-.3-2.1-.1-3.9-.6-6-.5-2.3-.4-4.6-.8-6.9-.3-1.4-.5-1.9-1.4-1.9s-1.2.2-2.1.2c-2.3,0-4.6.2-6.8.4s-4.4.4-6.6.4-3.7.2-5.5.2-3.3-.4-4.9-.4-2,1.5-2,2.8c0,2.2-.8,5-1.3,7.3-.9,3.9-1.5,7.7-2.3,11.8-.8,4.2-2.5,11.6-3.7,15.9,1.9,0,3.9,0,6.6,0s7.6,0,7.9,3.6c-.1,1.6-.3,2.1-1.3,3.3-.8,1-2.2,1.6-3.5,1.9-2,.5-3.2.6-4.5.6s-2.6,0-4.7,0c-3,0-6.1.2-9.2.2s-3.4,0-5-.2c-1.7-.2-3.9-.3-5.5-.9-1.7-.7-3.4-2.6-3.4-3.4s.1-1,.9-1.7c1-.9,3.2-1.5,4.6-1.7,2.8-.4,5.6-.6,8.4-.8v-.5c0-2.3.6-5.1.8-6.2.8-4.9,1.7-9.5,2.5-14.3.6-3.7,1.2-7.6,2.1-11.6.2-.9,1.1-3.9,1.1-5.5s-4.2-1.9-5.8-2.8c-1.4-.7-2.1-1.4-2.1-2.3,0-1.8,1.8-2.3,3.9-2.8,1.4-.2,4.4-.5,5.8-1.6,1.1-.9,1.1-4.6,1.5-6.2,1.3-4.6,2.5-9.3,3.7-13.6,1.3-4.9,2.6-9.5,3.7-14.1,1.1-4.6,2.1-9.2,3-13.9.8-4.4,1.5-8.8,3-12.9,1.5-4.4,3.1-9.2,5.1-13.4l2-4.2c.9-1.9,1.5-4,3.4-5.3,3.2-2.3,8-3,12.2-3s4.4.5,6.5,1.4,2.1,2.3,3.6,4.4c.9,1.4,2.4,2.5,3.1,3.9.7,1.6.8,3.2,1.2,4.9,1,3.2.9,6.9,1.6,10.4.8,3.7,2.3,6.9,2.7,10.6.5,4.4.8,8.3,1.8,12.5,1,3.9,1.8,7.9,2.1,12,.1,2,.5,3.9,1,5.9.6,2.6,1.3,5.2,1.6,7.8.2,1.1.5,3.5,1,5.7.5,1.9,1.1,3.6,1.9,4.2.5.4,1.5.5,2.5.5h2.3c2.1,0,4.6.7,5.8,2.5.5.7.7,1.2.7,1.6,0,.7-.4,1.4-1.3,2.1-1.4,1.2-2.5,2.5-4.1,3.2-.5.2-1.4.3-2.3.4-.7,0-1.3.2-1.6.5-.2.2-.2.5-.2.9,0,.7.2,1.6.5,2.5.3,1,.5,2.1.5,3.1v2.5c0,.9,0,1.6.3,2.5.5,2.1,1.2,4.2,1.5,6.2.2,2,.8,4.1,1.3,6.2.5,2.2,1,4.4,1,6.5,0,3,.3,4.6,1.1,7.4.2.8.4,1.7.6,2.6h5.4c3.3,0,6.5,1.6,6.5,4.1h0v-.4Z"/>
  <path class="st0" d="M373.2,637.3c0,2.3,0,8.8-3.7,8.8s-2.3-.4-3.5-1.4c-1-.9-1.5-2.3-1.8-3.5-.9-3.7-.3-7-.2-10.1-1.5,2.1-4.1,6-5.9,7.7-5,4.6-10.4,7.5-17.8,7.5s-3.1,0-4.7-.4c-5-.8-10.3-2.5-15.2-5.1-3.8-2-7.3-4.5-10-7.4-3.1-3.3-5.3-7.2-6.8-11.2-1.8-4.5-2.8-9.1-3.5-14.1-.7-5.2-1.1-10.4-1.1-15.6s.3-10.2.7-15.3c.4-4.8.3-9.7,1.1-14.5.9-4.9,2.6-10,4.2-15,1.7-5.1,3.1-10.2,5.2-15,1.9-4.6,4.7-8.1,8-11.8,3.1-3.5,5.8-7.6,9.3-10.7,3.5-3,7.5-4.3,11.9-5.5,3-.8,6.4-1.7,9.7-1.7s2.6.1,3.9.5c1.7.5,3.1,2,4.4,3,1.8,1.4,2,3.1,3.6,4.8,1.1,1.1,1.9,3.5,2.7,4.9,0-1.8.1-4.5.2-5.5.2-1.7.3-3.9,1-5.4.4-.8.6-1.3,1.4-2.2.4-.4,1.3-1.1,2-1.1s1.5.8,1.7,1.2c.8,1.2,1.4,3,1.6,4.4.2,1.7.3,5.5.4,9.5.1,5.3.1,11.2.3,13.3.4,4.4.5,6.7.4,11.1v1.5c0,1,0,1.9-.3,2.8-.4,2.3-1.2,4.6-3.4,4.6s-2.3-.4-3.5-1.4c-1-.9-1.5-2.3-1.8-3.5-1-4.3-.2-5.3-.2-9.6v-2c-.9-4.1-2.2-8-3.6-12.2-1.1-3.4-5.9-8.8-10-8.8s-4.8,1.6-6.7,3.1c-.8.7-1.4,1.4-2.1,2.1-.6.6-1.8,1.3-2.2,2.1-.8,1.4-.2,3.8-.9,5.5-.9,2.4-1.6,4.6-2.1,7.2-.9,4.6-2,9.1-2.9,13.8-.9,4.6-1.5,9.3-1.3,14,0,.8.3,1.7.3,2.5,0,1.2-.7,2-.7,3.3s.4,2.7.5,4c0,.7,0,1.4-.2,2.1-.4,1.2-.6,1.8-.6,2.6s0,1.1.3,1.9c.2.8.2,1.5.2,2.3,0,1.3-.1,2.6-.1,4,0,5.1,1.9,10,2,15.1.2,5.1.4,10.1,1.5,15.1.5,2.1.5,4.4,1.1,6.5s2.3,3.8,3.2,5.8c1.7,4,4.6,7.1,9.3,7.2,4.4,0,9.9-4.7,11.9-8.1,1.6-2.7,2.8-4.7,3.7-7.7,0-6.1.1-12.9.4-15.1.2-1.7.3-3.9,1-5.4.4-.8.6-1.3,1.4-2.2.4-.4,1.3-1.1,2-1.1s1.4.8,1.7,1.2c.8,1.2,1.4,3,1.6,4.4.2,1.7.3,10.1.4,14.2.1,5.4.2,11.2.3,13.3.4,4.5.5,6.8.4,11.2"/>
  <path class="st0" d="M448.7,564.8c-1.5,2.5-4.3,5.5-4.3,8.4s3.9,2.1,7.8,3.9c4,1.8,9,5.8,10.9,9.8,1.1,2.2,2.2,4.4,3.2,6.6,1.1,2.5,2,5.1,2.5,7.9.4,2.7.8,4.3,1.9,6.8s1.3,5.4,2,8c.5,2,.4,4.6,1.1,6.5.4,1,1.3,1.8,1.8,2.7.6,1.1,1.5,2.2,1.9,3.4.6,2.3,1.9,3.9,2.8,6,1,2.3,2.2,2.9,4.5,4,1.3.7,2.3,2.2,2.3,3.7s-.1,1.1-.4,1.6c-.9,1.7-4,2.7-6.9,2.7s-6.9-.5-10.8-1.6c-4.2-1.2-8.6-5.4-10.7-7.2-1.9-1.7-3.3-3.6-4.4-5.5-1.2-2.1-2.2-4.4-3.2-6.9-2.1-4.8-2.5-7.9-4.1-12.9-1.1-3.4-1.8-6.8-2.6-10.3-.5-2.1-1-4.1-1.6-6.2-.3-.9-1.1-3-1.9-4.8-1-2.3-2.1-4.4-3.8-4.4s-1.4.4-2.1,1.2c-1.2,1.3-2.6,3.1-3.6,4.6-1.5,2.1-2.4,4.8-2.7,7.4-.2,1.6-.5,3.4-.5,5s0,.7,0,1.1c.1,1.2.2,4.7.2,6.8,0,6.3.4,10.2,0,16.5-.1,2.1-.3,4.2-.6,6.3h5.1c2.8,0,8.2,0,8.2,3.3s-.3,2.3-1.5,3.6c-.9,1-2.3,1.6-3.7,1.9-2,.5-3.4.6-4.6.6h-7.9c-1.3,1.1-2.9,1.6-4.5,1.6s-3.9-.7-5.8-1.5h-14.8c-3.2,0-3.5,0-5.3-.2-1.7-.2-4.1-.3-5.7-.9-1.8-.7-3.5-2.6-3.5-3.4s.1-1,1-1.7c1-.9,3.3-1.5,4.8-1.7,4-.6,8.1-1,9.7-1h4.2c-.1-.5-.3-.9-.6-1.4-2.7-4.7-3.1-9.7-3.1-15s.2-12.5.3-18.8c.2-6.8.4-13.5.4-20.2s-.5-11.3-.5-17,.6-10.7.6-16.1.5-6.6.5-10-.4-5.2-.5-7.8c-.1-4.6,0-8.8,0-13.2-.7,0-.1.2-2.5.2s-3.5,0-5.2-.2-4.1-.3-5.7-.9c-1.8-.7-3.5-2.6-3.5-3.4s.1-1,1-1.7c1-.9,3.4-1.5,4.8-1.7,4-.6,9.6-.9,11.2-.9h1.6c1.2-1.5,3-2.4,5.2-2.5.5,0,1.1,0,1.7.1,1.7.3,4.1,1,6,2,7.2-.1,14.8-.3,17.6-.3s8.2.1,8.2,3.3-.3,2.3-1.5,3.6c-.9,1-2.4,1.6-3.7,1.9-2.2.5-3.5.6-4.8.6h-9.9c.9,1.7,1.6,3.4,1.6,5.3s-.2,1.9-.2,3.1.3,1.2.4,2c.5,2.1.5,4.5.9,6.7.1.7.2,1.4.2,2.1,0,1.5-.2,3-.2,4.5,0,3.1.7,6.2,1.1,9.4.3,2.4,1.3,4.7,1.8,7,.4,1.9.6,3.8.6,5.7v2c-.1,1.4-.1,2.8-.1,4.2s-.3,2.9-.3,4.3.3,2.7,1.2,2.7,2-1.6,2.6-2.8c1.3-2.7,2.6-5.4,3.9-8s2-3.9,3.1-5.8c1.9-3.3,3.8-6.5,5.6-9.8,1.4-2.6,2.9-5.3,4.3-8,1.9-3.7,3.8-7.3,5.7-11,2.1-4,4.1-8.1,6.1-12.2.2-.3.3-.6.4-.9-1.1,0-2.2,0-3.2-.2-1.2-.2-2.9-.3-4-.9-1.3-.7-2.5-2.6-2.5-3.4s0-1,.7-1.7c.7-.9,2.4-1.5,3.4-1.7,2.9-.6,6.1-1,7.9-1h2.9c.2-.2.5-.4.8-.5,1.1-.6,2-.8,3-.8s2,.2,3.2.4c.7.1,1.1.3,1.4.6,3.9-.1,7.5-.2,9.4-.2s5.8.1,5.8,3.3-.2,2.3-1.1,3.6c-.6,1-1.7,1.5-2.6,1.9-1.5.5-2.4.6-3.3.6h-9.1c-.8,1.8-1.6,2.9-2.5,4.8-2.2,4.2-3.9,8.4-6,12.5-2.5,4.7-4.2,10-6.3,15-2.3,5.3-5.5,10.2-8.5,15.2"/>
  <path class="st0" d="M542.7,635.7c2.9,0,8.5,0,8.2,3.6-.2,1.6-.4,2.1-1.5,3.3-.9,1-2.3,1.5-3.7,1.9-2,.5-3.4.6-4.6.6s-4.7-.2-9.1,0c-5.3,0-11,.4-12.2.4-3.2,0-8.5-.2-11.7-.3-1.8,0-3.5,0-5.2-.2s-4.1-.3-5.7-.9c-1.8-.7-3.5-2.6-3.5-3.4s.1-1,1-1.7c1-.8,3.4-1.5,4.8-1.7,4-.6,8.6-1,10.2-1h2.3c-1.5-1.4-2.6-3-2.6-5s-.2-2.1-.4-3.2c-.2-.7-.2-1.4-.2-2.1v-2c0-1.9.1-3.9.1-5.8v-2.4c-.2-10.7.4-21.4,0-32.1-.1-5.7,0-11.3.2-17,.2-4.9.3-9.8.4-14.7v-18.2c0-3.4-.1-9.5,0-14.3,0-.7,0-1.4.1-2.1h-1.5c-1.8,0-3.5,0-5.3-.2-1.7-.2-4.1-.3-5.7-.9-1.8-.7-3.5-2.6-3.5-3.4s-.2-1.1.5-1.9c.8-.8,3.6-1.2,5-1.4,3.8-.5,8.8-1,10.7-1v-1.2c0-1,.2-2,.7-2.6.7-.7,2.2-1.3,3.1-1.7,1.1-.5,2.3-.9,3.5-1.1,1-.2,2.1-.3,3.2-.3s2.9.2,4.2.5c3.4.9,6.2,3,7.8,6,4.5,0,8.4-.1,10.3-.1,2.9,0,8.5.1,8.2,3.6-.2,1.6-.4,2.1-1.5,3.3-.9,1-2.4,1.5-3.7,1.9-2,.5-3.4.6-4.6.6h-6.5v.4c.4,2.6.9,5.2,1.2,7.9.4,2.6.6,5.2.6,7.8s0,5,0,7.6-.2,2.5-.2,3.8.2,2.1.4,3.2c.8,5.3.8,10.7.9,16,.2,5.9.3,11.8.4,17.7,0,4.8.2,9.7.3,14.5.2,5.4,1,10.7,1.2,16.1,0,2.6.2,5.1.3,7.7v8.2c-.2,2.4-.3,5.1-1.1,7.4h4.4-.1Z"/>
  <path class="st0" d="M655.6,508.1c2.1,0,6.1.1,6.1,3.3s-.2,2.3-1.1,3.6c-.7,1-1.7,1.5-2.7,1.9-1.5.5-2.5.6-3.4.6h-6.5c.2,1.6.5,3.1.5,4.8,0,2.5-.4,5-.4,7.5,0,3.8.7,7.6,1.1,11.4.5,3.8.6,7.6.7,11.4,0,3.1,0,6.3.3,9.4.2,3.3.6,6.7.6,10s-.9,6.6-.9,10v9.7c0,3.2,0,7.7-.5,11.6-.3,3.1,0,6.2-.2,9.3,0,3.2-.5,6.3-.5,9.5s1.1,6.8,1.1,10.2-.5,4.6-2.3,6.2c-2.8,2.5-6.3,3.5-10,3.5s-5.9-.9-8.7-1.9c-3-1.1-5.8-2.4-7.9-4.2-4.8-3.9-7.5-9.3-9.9-14.9-2.7-6.2-5.5-12.4-8-18.8-1.4-3.6-2.8-7.2-4.1-10.8-2.1-5.8-4.1-11.6-6-17.4-1.3-3.8-2.5-7.6-3.7-11.4-1-3.2-2.2-6.3-3.8-9.2-.5-1-1.1-2-1.6-2s-.8,1.9-.8,2.9,0,2.2,0,3c0,3.6.5,7,.5,10.6,0,6.9.7,13.8,1.2,20.8,0,2.1.2,4.2.2,6.2,0,4.6-.2,9.2-.2,13.9s-.5,10.8-.5,16.1,0,3.3.2,5c0,2-.4,4-.6,6,3.9,0,7.4-.2,9.3-.2s6.1,0,6.1,3.3-.3,2.3-1.1,3.6c-.7,1-1.7,1.6-2.7,1.9-1.5.5-2.5.6-3.4.6h-15.3c-2.4,0-6.8.2-9.2.2s-2.6,0-3.9-.2c-1.3-.2-3-.3-4.2-.9-1.3-.7-2.6-2.6-2.6-3.4s0-1,.7-1.7,2.5-1.5,3.6-1.7c3-.6,8.2-1,9.4-1h2.1c0-9.1.7-17.7.7-27s0-5.3,0-7.9c-.4-9.4-.6-18.8-.6-28.2s0-10.9,0-16.3c0-6,.3-11.9.4-17.9.2-7.1.5-14.2.7-21.4h-6.4c-1.3,0-2.6,0-3.9-.2-1.3-.2-3-.3-4.2-.9-1.3-.7-2.6-2.6-2.6-3.4s0-1,.7-1.7c.8-.9,2.5-1.5,3.6-1.7,3-.6,10.5-1,11.7-1s3.8-.1,6.5-.2c1.2-1.1,2.5-2,3.6-2.9,1.6-1.2,3.4-1.8,5.3-1.8,2.8,0,5.6,1.3,7,4,1.2,2.2,2.8,4.2,3.8,6.6,1.2,3,2,6.2,3.4,9.2,1.2,2.5,1.9,5.2,3,7.8,1.2,2.9,2.5,5.6,3.3,8.7.8,3,1.8,5.9,2.6,8.8.8,2.9.7,5.4,2.3,8,3.2,5.1,5.9,11.2,7.3,17.1.7,3,1.5,5.6,2.9,8.3,1.5,2.9,2,5.9,2.7,9.1.6,2.9,2,5.5,3.4,8.2.6,1.2,1.6,2.3,2.2,3.6.6,1.3.7,2.7,1.2,4.1.7,1.8,1.2,4,2,5.8.4.9.8,1.3,1.2,1.3s.8-.4,1.1-1.4c.2-.6.2-1.3.2-2,0-3.5-.2-7.1-.2-10.6,0-7.2.4-14.4,0-21.6-.3-6.7-1.4-13.1-1.4-19.8v-22.2c0-4.2-.3-8.4-.3-12.6s0-4.4.3-6.5c-2,0-4.3.2-6.2.2s-2.6,0-3.9-.2c-1.3-.2-3-.3-4.2-.9-1.3-.7-2.6-2.6-2.6-3.4s0-1,.7-1.7c.8-.9,2.5-1.5,3.5-1.7,3-.6,10.5-1,11.7-1h4.6c1.1-1.1,2.5-1.8,4.1-1.8s2.7.6,3.2,1.6c3.5-.1,6.8-.2,8.5-.2h0v-.6Z"/>
  <path class="st0" d="M757.4,585.7c0,2.1-2.3,3.6-4,4.4-2.5,1.2-6.3,1.8-9,2.1-2.4.3-3.9.4-3.9,2.7s.4,5.7.4,7.1v7c0,1.5,0,3.1,0,4.8,0,5.4.2,11.9.3,14,.4,4.5.5,6.8.4,11.2,0,2.3,0,8.8-3.7,8.8s-2.3-.4-3.5-1.4c-1-.9-1.5-2.3-1.8-3.5-.4-1.6-.5-2.7-.5-3.8,0-1.7.3-3.1.3-5.8v-.6c-1.3,4.4-4.1,8.1-8,11-5.4,4.2-9.5,6.1-16.4,6.1s-8.3-.7-12.1-2c-4.5-1.5-8.2-4-11.4-7.1-4.5-4.5-7.9-10.2-10.9-16.1-2.3-4.5-3.6-9.2-4.4-14-.6-3.3-1-6.6-1.5-10-.5-3.3-.3-5.6-.3-8.6,0-11.7,3-23.4,6-36.2,1.3-5.8,2.7-11.7,4.5-17.5,2-6.1,4.5-12.1,8.1-17.3,3.2-4.6,6.8-9.5,11.1-13.1,2-1.7,4.1-2.8,6.5-3.5,3.1-.9,5.8-2.6,9.1-2.7h1.5c1.5,0,2.4.1,4.6.5,2.7.4,5.3,1.2,7.4,2.4,1.9,1.1,3.3,2.8,4.4,4.6,0-1.4.3-2.8.8-3.9.4-.8.6-1.3,1.4-2.2.4-.4,1.3-1.1,2-1.1s1.4.8,1.7,1.2c.8,1.2,1.4,3,1.6,4.4.2,1.7.3,5.5.4,9.5,0,5.4,0,11.2.3,13.3.4,4.5.5,6.7.4,11.2,0,2.3,0,8.8-3.7,8.8s-2.3-.4-3.5-1.4c-1-.9-1.6-2.3-1.8-3.6s-.3-2.4-.3-3.6c0-1.7,0-3.4.2-5.9,0-1.4-.3-2.9-.5-4.3-.3-3.2-.9-6.3-1.4-9.4-.5-2.9-1.7-5.7-3.4-8.4-1.2-1.8-4.2-2.6-6.3-2.6-3.1,0-4.9,1.5-6.4,3.9-1.4,2.4-3.6,4.4-4.5,7-1,2.7-1.5,5.8-1.8,8.7-.3,3-.8,5.4-1.6,8.3-.9,3.1-1.1,6.5-1.8,9.7-.6,2.9-.8,5.8-1.1,8.7-.2,2.7-1.1,5.4-1.4,8.1-.3,3.1-.7,6.2-1.1,9.3-.4,3-.7,5.9-1,8.9-.3,2.6-.6,5.3-.6,7.9,0,3.8.5,7.5.7,11.2.2,5.1,1.8,10.2,2.8,15.2.4,2,.8,4,1.3,5.9.7,2.5,1.7,5,3.1,7.2,2,3.2,5.6,6.9,9.7,6.9s6-2.7,7.8-5.3c2.8-4.1,4.3-8.7,5.2-13.5.8-4.2,1.2-8.5,1.4-12.7.2-2.9.3-7,.3-9.9v-1.6c0-2.2,0-2.9-3.3-2.9s-5.3.4-8,.4-4.7-.3-6.8-1.3c-.9-.4-1.4-.9-1.4-1.5s.2-1,.8-1.6c1.3-1.4,2.6-1.6,4-2.3,2.8-1.4,6.1-1.8,9.4-2.3,3-.5,6.1-.7,8.9-1,2.3-.2,4.7-.3,7-.3,3.5,0,9-.3,11.2-.3s5.5.9,5.5,3.5"/>
  <path class="st0" d="M910.8,635.7c2.8,0,8.2,0,8.2,3.3s-.3,2.3-1.5,3.6c-.9,1-2.3,1.6-3.7,1.9-2,.5-3.4.6-4.7.6h-6.5c-3,1.6-6.4,2.7-9.9,2.7s-4.1-.4-5.9-1.2c-.9-.4-1.8-1-2.5-1.6-2.8,0-5.3.2-8.1.2s-3.5,0-5.3-.2c-1.7-.2-4.1-.3-5.7-.9-1.8-.7-3.5-2.6-3.5-3.4s0-1,1-1.7c1-.8,3.4-1.5,4.8-1.7,4-.6,9.5-1,11.1-1h.8c-.2-.9-.4-1.9-.6-2.8-.9-5.6-1.4-11.4-1.8-18.5-.5-7.3-.3-14.6-.6-21.7-.3-6.5-.4-12.9-.6-19.4,0-6.3-.3-12.7-.6-19-.3-5.8-.8-13.8-.8-16s-.3-1.6-.6-1.6-.5.3-.6,1c-.6,2.6-.8,5.3-1.4,7.9-1.2,5.8-2.4,11.6-3.7,17.4-1.3,5.6-2.7,11.1-3.4,16.8-.3,2.9-1,5.6-1.7,8.3-.7,2.8-1.5,5.6-2.1,8.5-.6,3-1.1,6.2-2.7,8.4-1.4,2-3.6,3.4-7.5,3.4s-9.1-1.7-12.2-4.6c-4.1-3.9-5.4-10.2-6.7-15.4-1.4-5.8-2.5-11.7-3.8-17.6-.2-1.2-1.2-6.2-2.4-12.3-1.1-5.6-2.5-12.1-3.7-17.4-.9-3.9-1.8-7.3-2.4-9.1-.4-1-.4-1.4-.7-1.4-.5,0-.7,1.4-.9,3.6,0,1.9-.2,4.8-.2,5.3-.2,2.6-.4,5.2-.4,7.8s-.2,5.7-.4,9.6c-.2,3.5-.5,7.3-.6,10.4-.2,2.8-.4,5.6-.4,8.4s-.5,4.7-.5,7.1v5.6c0,1.9,0,3.4-.2,5-.3,3.3-.9,6.5-1.4,9.7-1,6.4-1.8,13-2.3,19.5-.2,2.8,0,6.3-.3,9.8,0,1-.2,2-.4,3,4.7,0,9.1-.2,11.1-.2s6.8.6,6.8,3.8-1.2,1.8-2.1,3.1c-.7,1-1.9,1.5-2.9,1.9-1.7.5-2.7.6-3.7.6s-12.3,0-14,0c-2.6,0-9.9.2-12.5.2s-2.8,0-4.2-.2-3.3-.3-4.5-.9c-1.4-.7-2.4-2.6-2.4-3.4s0-1,.8-1.7c.8-.9,2.2-1.5,3.4-1.7,3.2-.6,9.5-1,10.8-1h3.4c.2-5.6,1-11.2,1.4-16.7.6-7,1-14,1.3-21.1.3-5.9.6-11.7.8-17.6.4-8.3.8-16.7,1.3-25,.3-4.2.6-8.4,1-12.6.6-6.6,1.4-10.7,2.4-17.3.5-3.1.7-6.6,1.1-9.7,0-.2,0-.5,0-.8-1.4,0-2.5.2-4.6.2s-3.5,0-5.2-.2-4.1-.3-5.7-.9c-1.8-.7-3.5-2.6-3.5-3.4s0-1,1-1.7c1-.9,3.4-1.5,4.8-1.7,4-.6,9.5-1,11.1-1,4.6,0,8.3-.5,13.7-.5h2c2,0,4.3.1,5.9.9,3,1.5,6.5,4.7,8.1,10.5,1.5,5.5,4,11.3,5.5,17.2.7,2.7.3,5.3,1.2,7.9,1,3.1,1.8,6.2,2.2,9.4.4,2.7.5,5.2,1.6,7.7,1.2,2.6,1.4,4.7,1.9,7.4.2,1,1.5,5,2.5,8.3,1,3,1.6,5.3,2.3,5.3,1.4,0,1.9-7,2.1-8.3.6-3.2,1.2-6.5,1.8-9.7,1.2-6.6,2.6-13.3,3.9-19.9,1.4-6.8,2.6-13.7,4.2-20.4,1.3-5.5,3.4-11,7.4-15.2,2.6-2.7,6.3-4.7,10-4.7s3.4.2,5,1.2h14.9c2.9,0,8.2,0,8.2,3.5s-.4,2.1-1.5,3.3c-.9,1-2.3,1.6-3.7,1.9-2,.5-3.4.6-4.6.6h-5.8c.2.5.4,1,.5,1.5.5,2.9.8,5.8,1.2,8.7.4,3.1.7,6.1,1.1,9.1.3,2.1.9,4.2.9,6.3s0,.7,0,1.1c0,.7,0,1.4,0,2.1,0,2.1.3,4.2.5,6.3.3,2.8,1,5.6,1,8.4s-.2,1.7-.2,2.6c0,1.4.8,2.5,1.1,3.8.2.8.3,1.6.3,2.5v5.3c0,1.8,0,3.6.2,5.3.2,2,.4,3.9.8,5.9.3,1.6.5,3,.5,4.4s-.2,1.6-.2,2.8,0,.9.4,1.8c.5,1.5.8,2.7,1,4.3.3,2.5.6,5.1.9,7.6.3,3.3.6,6.5.9,9.8v1.3c0,1.2-.2,2.3-.2,3.5,0,2.9.3,4,.6,5.1.2.9.3,1.7.3,2.5v3.1c0,1,0,1.3,0,1.9.2,1.4.4,2.9.4,4.4s0,.8,0,1.1h2.4-.5Z"/>
  <path class="st0" d="M979.7,585.6c0-.9-.4-3-.5-3.9-.5-3-1-5.1-1.1-7.9,0-6.2-.2-12.7-.6-19-.2-3-.6-5.9-1.1-8.9-.5-3.3-1-6.7-1.1-10.1,0-1.1-.2-5.2-.5-8.2-.3-2.9-.8-4.8-1.8-4.8-1.6,0-3.6,3.7-3.8,4.6-.7,2.3-1.1,5.1-1.7,7.4-.3,1.2-.4,2.4-.5,3.5,0,1.2-.3,2.5-.7,3.7-.9,2.5-1.1,5.3-1.5,7.9-.8,5.3-2.6,10.4-4.1,15.5-.7,2.4-1.1,4.8-1.6,7.3-.5,2.8-1,5.6-2.1,8.4-.4,1.1-1.3,4.8-1.3,6.2s.5.7,1.4.7c1.4,0,3.9-.2,4.6-.2,1.7,0,3.3-.2,4.9-.4,1.3-.2,2.6-.3,3.9-.3s3.2.2,5.1.2,2.3,0,3.2-.5c.5-.3.9-.8.9-1.4M1030.7,641.6c0,1.2-.9,1.7-1.8,2.8-.8,1-2.2,1.6-3.5,1.9-2.2.5-3.7.6-5.3.6s-2.9,0-4.8,0-.9,0-1.7,0c-1,.4-2,.7-3,1-1.2.2-2.3.5-3.5.5-2.5,0-5.2-.4-7.5-1.2h-4.8c-4.8,0-8.9,0-10.6-.2-1.7-.2-3.9-.2-5.5-.9-1-.5-3.4-1.9-3.4-3.4,0-2.6,3.4-3.1,5.5-3.4,1,0,3.1-.2,5.8-.4-.2-1.5-.3-3.1-.4-4-.2-2-.3-3.9-.7-5.7-.2-.9-.5-1.7-.5-2.8s.4-2.3.4-3.2-.7-1.8-1-3.5c-.3-2.3-1-4.6-1.3-6.9-.3-2.1,0-3.9-.6-6-.5-2.3-.4-4.6-.8-6.9-.3-1.4-.5-1.9-1.4-1.9s-1.2.2-2.1.2c-2.3,0-4.6.2-6.8.4s-4.4.4-6.6.4-3.7.2-5.5.2-3.3-.4-4.9-.4-2,1.5-2,2.8c0,2.2-.8,5-1.3,7.3-.9,3.9-1.5,7.7-2.3,11.8-.8,4.2-2.5,11.6-3.7,15.9,1.9,0,3.9,0,6.6,0s7.6,0,7.9,3.6c0,1.6-.3,2.1-1.3,3.3-.8,1-2.2,1.6-3.5,1.9-2,.5-3.2.6-4.4.6s-2.6,0-4.7,0c-3,0-6.1.2-9.2.2s-3.4,0-5-.2c-1.7-.2-3.9-.3-5.5-.9-1.7-.7-3.4-2.6-3.4-3.4s0-1,.9-1.7c1-.9,3.2-1.5,4.6-1.7,2.8-.4,5.6-.6,8.4-.8v-.5c0-2.3.6-5.1.8-6.2.8-4.9,1.7-9.5,2.5-14.3.6-3.7,1.2-7.6,2.1-11.6.2-.9,1.1-3.9,1.1-5.5s-4.2-1.9-5.8-2.8c-1.4-.7-2.1-1.4-2.1-2.3,0-1.8,1.8-2.3,3.9-2.8,1.4-.2,4.4-.5,5.8-1.6,1.1-.9,1.1-4.6,1.5-6.2,1.3-4.6,2.5-9.3,3.7-13.6,1.3-4.9,2.6-9.5,3.7-14.1,1.1-4.6,2.1-9.3,3-13.9.8-4.4,1.5-8.8,3-12.9,1.5-4.4,3.1-9.2,5.1-13.4l2-4.2c.9-1.9,1.5-4,3.4-5.3,3.2-2.3,8-3,12.2-3s4.4.5,6.5,1.4,2.1,2.3,3.6,4.4c.9,1.4,2.4,2.5,3.1,3.9.7,1.6.7,3.2,1.2,4.9,1,3.2.8,6.9,1.6,10.4.8,3.7,2.3,6.9,2.7,10.6.5,4.4.8,8.3,1.8,12.5,1,3.9,1.8,7.9,2.1,12,0,2,.5,3.9,1,5.9.6,2.6,1.3,5.2,1.6,7.8.2,1.1.5,3.5,1,5.7.5,1.9,1.1,3.6,1.9,4.2.5.4,1.5.5,2.5.5h2.3c2.1,0,4.6.7,5.8,2.5.5.7.7,1.2.7,1.6,0,.7-.4,1.4-1.3,2.1-1.4,1.2-2.5,2.5-4.1,3.2-.5.2-1.4.3-2.3.4-.7,0-1.3.2-1.6.5s-.2.5-.2.9c0,.7.2,1.6.5,2.5.2,1,.5,2.1.5,3v2.5c0,.9,0,1.6.3,2.5.5,2.1,1.2,4.2,1.5,6.2.2,2,.8,4.1,1.3,6.2.5,2.2,1,4.4,1,6.5,0,3,.3,4.6,1.1,7.4.2.8.4,1.7.6,2.6h5.4c3.3,0,6.5,1.6,6.5,4.1h0l-.3-.3Z"/>
  <path class="st0" d="M1109.5,578.1c0-2.3-.2-6.8-.7-11.9-.5-5.9-1.2-10.3-1.3-11.5-1-8.4-2.2-15.6-4.6-23.8-.6-2.2-.4-6.1-7.8-12.5-1.5-1.3-8-2.9-12.4-2.9s-3.9.5-4.4,2c-.4,1.2-.3,5.7-.4,11.5-.2,12.6-.2,31-.5,33.8-.2,1.6-.2,3.2-.2,4.8,0,3,.2,6,.3,8.9,0,4,.2,8,.3,12v10.1c0,3.3.5,14.4.3,18.9,0,1.7-.4,3.5-.4,5.2s-.7,7.5-.7,10.9.2,1.8,1.5,1.8h3.3c2,0,1.3.2,4.5.2s4.8-2.5,5.9-2.7c.7,0,2.6-1.1,3.2-1.4,1.5-.9,2.4-2.9,3.2-4.4,1.2-2.2,2.4-4.4,3.4-6.6,1.8-4.1,3.2-4,4.2-13.5.6-5.3,2-10.3,2.5-15,.5-4.9.7-9.6.7-13.8M1135.9,577.9c0,.8.5,3.1.5,4.4s-1,3.5-1.3,5.3c-.3,1.9,0,3.9-.3,5.8,0,.9-.7,2.4-1.1,3.9-.4,1.4-.6,2.8-1.1,3.8-.8,1.9-1.1,4.1-1.5,6.1s-.8,4-1.6,5.8c-.8,1.7-2,3-3.1,4.7-.8,1.2-.9,2.7-1.8,3.9-1.1,1.5-3.1,5.2-4.2,6.7-4.6,6.3-8.8,9.1-11.9,11.5-2.1,1.7-5,2.7-8,3.5-2.6.7-5.5,1.3-8.1,1.3s-4.4-.8-6.4-.8c-6,0-3.8.5-9.9.5-.8,1.8-1.7,2.9-3.4,3.6-1,.4-2.2.5-3.4.7-1.2.2-2.3.4-3.5.6-.7,0-2.1.3-2.8.3-1.5,0-3.7-.9-4.1-1.2-1.3-.8-2.5-1.8-4-3-.5-.4-.9-.7-1.3-1.1-1.7,0-.3.2-3.1.2s-3.5,0-5.2-.2-4.1-.3-5.7-.9c-1.8-.7-3.5-2.5-3.5-3.3,0-1.4,0-1.9,1-2.6,1-.8,3.4-1.4,4.8-1.6,2.4-.3,5.7-.6,8.2-.8-.3-1.8-.3-3.7-.3-5.6,0-9.4-.3-18.6-.3-27.9s.5-12.8.8-26.4c.2-9.7.4-19.3.4-29.1s0-11.9.4-18.4c.2-3.7.6-7.5.7-11.2h-1.2c-1.8,0-3.5,0-5.2-.2s-4.1-.3-5.7-.9c-1.8-.7-3.5-2.5-3.5-3.3s0-1.9,1-2.6c1-.8,3.3-1.4,4.8-1.6,3.9-.5,8.1-1,10.8-1,.3-.7.8-1.3,1.2-1.7.7-.7,2.4-1.5,3.4-1.9,1.1-.5,2.3-.9,3.5-1.1,1-.2,2.1-.3,3.2-.3s2.9.2,4.2.5c2.5.6,4.4,2.1,5.8,4,1.4,0,2.7-.1,4.2-.1,4.1,0,7.9,1.2,14.6,1.2s7.1,2,10.9,2,4,.1,5.6,1c1.7,1,3,2.7,4.5,4,1.3,1.1,2.9,2,3.7,3.5.8,1.3,1,2.8,1.9,4,1.2,1.5,2.4,2.5,5.4,4.4,1.9,1.2,1.1,4.1,2.2,6.1,2.3,4.2,6.4,8.7,7.5,13,1.1,4,1.5,7.5,1.5,11.6s-.2,5.4-.2,8.2.2,3.8.6,5.7c0,.6.2,1.2.2,1.7,0,1.9-.6,3.4-.6,5.7"/>
  <path class="st0" d="M1225.3,633.5c.7.5,1.1,1.2,1.1,2.1,0,1.9-1.4,3.6-2.9,4.7-1.6,1.1-3.6,1.3-5.4,1.6-4.2.7-8.4.8-12.6,1.5-2.1.3-4.1.7-6.2,1-1.5.2-5.8.2-8.6.3-1,.2-1.8.4-2.6.4h-2.4c-.8,1.2-1.7,1.9-3.2,2.5-1.1.4-2.4.5-3.7.7-1.3.2-2.6.4-3.9.5-.8,0-2.3.3-3.1.3-1.7,0-4.1-.9-4.5-1.2-1.4-.8-2.7-1.8-4.4-2.9h-2.6c-3,0-.8.2-3.9.2s-3.4,0-5-.2c-1.7-.2-3.9-.3-5.4-.9-1.7-.7-3.4-3.3-3.4-4.1s0-1,.9-1.7c1-.8,3.2-1.5,4.6-1.7,3.1-.4,6.5-.8,9.5-1,0-3.4,0-8.2,0-13.1,0-7.5-.3-15.3-.3-17.4s0-7.7-.3-12.1c-.2-4.3-.3-8.6-.4-12.9,0-1.7,0-3.4,0-5.1,0-2.6.5-5.1.5-7.7s-.2-3.7-.2-5.6.3-4.7.6-7c.6-4.1,1.2-8.3,1.3-12.5,0-4.6,0-9.2,0-13.9s0-7.3.5-10.9c-1.4,0-.3.2-2.9.2s-3.4,0-5-.2c-1.7-.2-3.9-.3-5.5-.9-1.7-.7-3.4-3.3-3.4-4.1s0-1,.9-1.7c1-.9,3.2-1.5,4.6-1.7,3.7-.5,9.7-1,12.5-1v-.2c.2-.8,1.1-1.2,1.8-1.7,1.6-1,3.5-1.4,5.3-1.9,1.4-.4,2.9-.7,4.4-.7s1.1,0,1.6.2c.9.2,1.6.6,2.4,1,.9.4,1.9.7,2.9,1,1.9.5,3.7,1.5,5.6,1.9.6.2,1.3.2,2,.2,1.3,0,2.6-.2,3.8-.2h10.9c1.9,0,3.9.1,5.9.3,2.3.2,4.5.4,6.7.8,1.3.2,2.7.5,4,.8.8-.8,1.6-1.4,2.1-1.4s1,.1,1.7.9c.8,1,1.9,2.9,2,4.3.6,6.1.3,3.4.7,7.2.4,4.8.5,4.8.5,9.9s0,7.9-3.3,7.9-2.3-.3-3.6-1.4c-1-.9-1.5-2.2-1.9-3.5-.5-2-.6-3.2-.6-4.5s0-2.6,0-4.7,0-4,0-6c-1.8.4-3.7.6-5.5.6s-4.7,0-7,.4c-2.1.3-4.3.6-11,.8-1,0-2,.2-3,.4-.8,0-1.7.3-2.2,1s-.4,1.6-.4,2.4.2,2.1.3,3.2c.2,2.1.2,4.2.3,6.3v4.4c0,2.7,0,5.4,0,8,0,2-.4,4.1-.5,6.1v6.3c0,1.1,0,2.1,0,3.1,0,.7-.3,1.8,0,2.5s1.2.7,1.8.7c1,0,2.1.3,3.1.3,6.5.2,8.5.2,10.4.5,1.8.3,3.6.5,5.5.6v-1.2c0-1.7,0-3.4.2-5,.2-1.7.3-3.9.9-5.4.7-1.7,2.6-3.4,3.4-3.4s1,0,1.7.9c.9,1,1.5,3.2,1.7,4.6.6,3.8.7,7.8,1,11.5.4,4.8.5,7,.5,12.2s0,7.9-3.3,7.9-2.3-.3-3.6-1.4c-1-.9-1.6-2.3-1.9-3.5-.5-2-.6-3.2-.6-4.5s0-2.3,0-3.9c-4.2.2-10.3.3-18.4.2-1.9,0-2.8,1-2.9,2.9,0,2.1,0,4.1-.3,6.2,0,.8,0,1.5,0,2.3,0,1.2,0,2.4.2,3.7.2,1.7.5,3.4.5,5.2s-.2,3.3-.2,5c0,2.8.6,5.4.6,8.2,0,4.2,0,8.4,0,12.6,0,2.1.4,4.1.9,6.1.4,1.6,0,5.5,1.3,6.4.5.4,2.1.5,5.1.5s6.2-.2,7.8-.2c2.6,0,5.2.5,7.8.5s4.5-.8,7-1.2c0-2.1.2-4.2.2-6.3s0-3.3,0-4.7,0-2.5.6-4.5c.3-1.3.8-2.7,1.9-3.5,1.3-1.1,1.8-1.4,3.6-1.4,3.2,0,3.3,5.2,3.3,7.9,0,5.2,0,7.4-.5,12.2,0,.4,0,.7,0,1h0v-.2Z"/>
  <path class="st0" d="M1330,532.6v-3.2c-.2-2.5-2.1-5.7-4.4-8.4-.9-1.1-1.9-2-2.9-2.7-1.5-1-3.1-1.7-4.7-2.1-3.2-.8-6.5-.8-8.9-.8l-5.5.2c0,2.8,0,6.8,0,11.8.2,6.4.9,13.9,1,20.5.2,8.6.4,15,.4,16.3,0,2.4.6,4.6.3,6.9v1.1c0,1.5.6,1.7,1.7,1.7s1.6,0,2.7,0h3.4c2.7,0,7.1-1.1,9.1-3.3,1.6-1.8,2.5-2.9,3.4-5.4.7-2.2,1.3-4.4,1.8-6.4.8-2.8,1.4-4.4,1.7-7.1.4-2.9.5-3.6.5-6.5s.2-2.5.3-6c0-3,.2-3.6.2-6.5M1360.6,640.1c1.2.9,3.2,1.9,3.1,3.4,0,.4-.2.9-.5,1.3-1.1,1.5-3.3,1.9-5.1,1.9-5.4,0-13-3.8-16.7-7.6s-6.1-8.1-8.7-12.7c-1.4-2.4-2.5-4.9-3.7-7.5-1-2.3-1.9-4.6-2.6-7.2-.7-2.7-1.4-5.3-2.3-7.9-.9-2.7-1.9-5.4-2.9-8.1-.8-2-1.7-4.7-2.7-7.2-1-2.6-2.1-3.8-4-5.2-1.3-1-2.9-1-4-1.2-.9,0-2.4,0-3.8,0s-.7.5-.7,1.1c0,1.6.4,4.4.3,5,0,2.8-.6,5.6-.6,8.4,0,4.4,1.1,6.6,1.1,11s-.9,10.7-1.4,16c-.2,1.8-.5,3.6-.5,5.4s0,2.1.3,3.3c3.2,0,5.9,0,7.6,0,2.8,0,8.2,0,8.2,4.2s-.3,2.3-1.5,3.7c-.9,1-2.3,1.5-3.7,1.9-2.1.5-3.5.6-4.8.6h-8.6c-2.3,1.5-5.2,2.6-7.6,2.9-1.5.2-2.7.4-4,.4s-1.6,0-2.5-.4c-2-.6-3.9-1.6-5.6-2.9-2.1,0-4.2,0-6,0s-3.5,0-5.3-.2c-1.7-.2-4.1-1.2-5.7-1.9-1.8-.7-3.5-2.6-3.5-3.4s0-1,1-1.7c1-.8,3.4-1.5,4.8-1.7,2.9-.4,7.2-.8,9.9-.9-.2-1.3-.4-2.6-.5-3.9-.2-1.6-.6-12.4-.6-16.2s.4-9.2.4-13.5-.4-10-.4-15,0-11.2.3-16.8c.2-5.9.4-11.8.7-17.7.2-5.6.4-6.9.4-12.5s0-5.1,0-7.6.5-5.3.6-7.9c0-1.4-.3-3.2-.4-5h-1.5c-1.8,0-3.5,0-5.2-.2s-4.1-.3-5.7-.9c-1.8-.7-3.5-2.8-3.5-3.6s0-1,1-1.7c1-.9,3.4-1.5,4.8-1.7,4-.6,7.8-1,10.8-1,.2-.5.5-.9.9-1.1.9-.5,2.2-1.1,3.7-1.7,1-.5,2.4-1.2,3.5-1.4.7-.2,2.2-.3,3.5-.3s4.4.5,6.6,1.3,4,1.3,4.8,2.3c2.8-.1,4.5-.2,6.7-.2s4.9.2,8.3.2,2.6-.2,4.2-.2c2.3,0,5.5,1.3,10,2.4,1.9.5,3.6,1.6,5.1,2.7,1,.7,3.4,2.1,5.7,3.6,2.3,1.5,4.5,3.2,5,4.3.9,2.2,3.7,4.2,4.6,6.4,1.2,2.7,1.6,5.6,1.8,8.6,0,2.2.8,3.8.8,4.7v1.7c0,.9.7,2.2.7,3.4s-.4,2.9-.5,4.2c-.3,2.1-.3,3.3-.8,5.9-.5,2.5-1.2,5-2.6,6.7-.7.9-1.7,1.3-2.2,2.3-.4.8-.4,1.6-1,2.4-.9,1.3-2.7,3.6-3.9,4.4-.8.6-1.7.5-2.5,1.4-.9.9-1.5,1.8-2.5,2.6-1.5,1.3-2.9,3.1-4.6,4.1-1.5.8-2.8.8-2.7,3,0,1.8,4.6,4.3,5.4,6,1.5,3.2,3.6,5.8,4.8,9,1.1,2.8,2,5.6,2.9,8.5,1.2,3.9,2.3,7.8,3.2,11.8,1,4.1,3.4,7.8,4.8,11.9.8,2.3,1.8,4.5,3,6.4,1.3,2,2.9,3.7,4.9,5.1h0Z"/>
  <path class="st0" d="M1418.7,635.8c2.9,0,8.5,0,8.2,3.6-.2,1.6-.4,2.1-1.5,3.3-.9,1-2.3,1.6-3.7,1.9-2,.5-3.4.6-4.6.6s-4.7-.2-9.1,0c-5.3,0-11,.4-12.2.4-3.2,0-8.5-.2-11.7-.2s-3.5,0-5.2-.2-4.1-.3-5.7-.9c-1.8-.7-3.5-2.6-3.5-3.4s0-1,1-1.7c1-.8,3.4-1.5,4.8-1.7,4-.6,8.6-1,10.2-1h2.3c-1.5-1.4-2.6-3-2.6-5s-.2-2.1-.4-3.2c-.2-.7-.2-1.4-.2-2.1v-2c0-1.9,0-3.9,0-5.8v-2.4c-.2-10.7.4-21.4,0-32.1,0-5.7,0-11.3.2-17,.2-4.9.3-9.8.4-14.7v-18.2c0-3.4,0-9.5,0-14.3,0-.7,0-1.4,0-2.1h-1.5c-1.8,0-3.5,0-5.3-.2-1.7-.2-4.1-.3-5.7-.9-1.8-.7-3.5-2.6-3.5-3.4s-.2-1.1.5-1.9c.8-.8,3.6-1.2,5-1.4,3.8-.5,8.8-1,10.7-1v-1.2c0-1,.2-2,.7-2.6.7-.7,2.2-1.3,3.1-1.7,1.1-.5,2.3-.9,3.5-1.1,1-.2,2.1-.3,3.2-.3s2.9.2,4.2.5c3.4.9,6.2,3,7.8,6,4.5,0,8.4-.1,10.3-.1,2.9,0,8.5.1,8.2,3.6-.2,1.6-.4,2.1-1.5,3.3-.9,1-2.3,1.5-3.7,1.9-2,.5-3.4.6-4.6.6h-6.5v.4c.4,2.6.9,5.2,1.2,7.9.4,2.6.6,5.2.6,7.8s0,5,0,7.6-.2,2.5-.2,3.8.2,2.1.4,3.2c.8,5.3.8,10.7.9,16,.2,5.9.3,11.8.4,17.7,0,4.8.2,9.7.3,14.5.2,5.4,1,10.7,1.2,16.1,0,2.6.2,5.1.3,7.7v8.2c-.2,2.4-.3,5.1-1.1,7.4h4.4v-.2Z"/>
  <path class="st0" d="M1525,585.8c0,2.1-2.3,3.6-4,4.4-2.5,1.2-6.3,1.8-9,2.1-2.4.3-3.9.4-3.9,2.7s.4,5.7.4,7.1v7c0,1.5,0,3.1,0,4.8,0,5.4.2,11.9.3,14,.4,4.5.5,6.8.4,11.2,0,2.3,0,8.8-3.7,8.8s-2.3-.4-3.5-1.4c-1-.9-1.5-2.3-1.8-3.5-.4-1.6-.5-2.7-.5-3.8,0-1.7.3-3.1.3-5.8v-.6c-1.3,4.4-4.1,8.1-8,11-5.4,4.2-9.5,6.1-16.4,6.1s-8.3-.7-12.1-2c-4.5-1.5-8.2-4-11.4-7.1-4.5-4.5-7.9-10.2-10.9-16.1-2.3-4.5-3.6-9.2-4.4-14-.6-3.3-1-6.6-1.5-10-.5-3.3-.3-5.6-.3-8.6,0-11.7,3-23.4,6-36.2,1.3-5.8,2.7-11.7,4.5-17.5,2-6.1,4.5-12.1,8.1-17.3,3.2-4.6,6.8-9.5,11.1-13.1,2-1.7,4.1-2.8,6.5-3.5,3.1-.9,5.8-2.6,9.1-2.7h1.5c1.5,0,2.4.1,4.6.5,2.7.4,5.3,1.2,7.4,2.4,1.9,1.1,3.3,2.8,4.4,4.6,0-1.4.3-2.8.8-3.9.4-.8.6-1.3,1.4-2.2.4-.4,1.3-1.1,2-1.1s1.4.8,1.7,1.2c.8,1.2,1.4,3,1.6,4.4.2,1.7.3,5.5.4,9.5,0,5.4,0,11.2.3,13.3.4,4.5.5,6.7.4,11.2,0,2.3,0,8.8-3.7,8.8s-2.3-.4-3.5-1.4c-1-.9-1.6-2.3-1.8-3.6-.2-1.3-.3-2.4-.3-3.6,0-1.7,0-3.4.2-5.9,0-1.4-.3-2.9-.5-4.3-.3-3.2-.9-6.3-1.4-9.4-.5-2.9-1.7-5.7-3.4-8.4-1.2-1.8-4.2-2.6-6.3-2.6-3.1,0-4.9,1.5-6.4,3.9-1.4,2.4-3.6,4.4-4.5,7-1,2.7-1.5,5.8-1.8,8.7-.3,3-.8,5.4-1.6,8.3-.9,3.1-1.1,6.5-1.8,9.7-.6,2.9-.8,5.8-1.1,8.7-.2,2.7-1.1,5.4-1.4,8.1-.3,3.1-.7,6.2-1.1,9.3-.4,3-.7,5.9-1,8.9-.3,2.6-.6,5.3-.6,7.9,0,3.8.5,7.5.7,11.2.2,5.1,1.8,10.2,2.8,15.2.4,2,.8,4,1.4,5.9.7,2.5,1.7,5,3.1,7.2,2,3.2,5.6,6.9,9.7,6.9s6-2.7,7.8-5.3c2.8-4.1,4.3-8.7,5.2-13.5.8-4.2,1.2-8.5,1.4-12.7.2-2.9.3-7,.3-9.9v-1.6c0-2.2,0-2.9-3.3-2.9s-5.3.4-8,.4-4.7-.3-6.8-1.3c-.9-.4-1.4-.9-1.4-1.5s.2-1,.8-1.6c1.3-1.4,2.6-1.6,4-2.3,2.8-1.4,6.1-1.8,9.4-2.3,3-.5,6.1-.7,8.9-1,2.3-.2,4.7-.3,7-.3,3.5,0,9-.3,11.2-.3s5.5.9,5.5,3.5"/>
  <path class="st0" d="M1628.2,635.8c2.8,0,8.2,0,8.2,3.3s-.3,2.3-1.5,3.6c-.9,1-2.3,1.6-3.7,1.9-2.1.5-3.5.6-4.8.6-2.5,0-22,0-24.1,0-3.2,0-.8.2-4.1.2s-3.5,0-5.2-.2-4.1-.3-5.7-.9c-1.8-.7-3.5-2.6-3.5-3.4s0-1,1-1.7c1-.9,3.4-1.5,4.8-1.7,3.6-.5,6.8-.9,8.6-1-1.6-1.2-2.6-2.5-2.8-5.1-.5-5.1-.6-10.2-.6-15.3s0-9.7,0-14.6,0-6.3-.2-9.4c0-3.3-.4-6.5-.2-9.8,0-1.1.4-2.9.4-4.3s-.2-1.9-.7-2.3c-.4-.2-1-.3-1.9-.3-2.4,0-6.1.8-7.3.9-2,.2-3.9.4-10.5.4s-4.8-.6-5.6-.6-.9,0-.9,1.1v4.1c0,1.3,0,3.4-.2,5.2,0,1.5-.2,3.1-.2,4.6,0,2.4,0,4.9.3,7.3v1c0,2.3-.4,4.5-.4,6.9s0,5.1-.3,7.7c0,2.5-.3,4.9-.3,7.4s-.6,6.2-.6,9.7.4,3.3.6,5c2.9,0,6.7.6,6.7,3.3s-.3,2.3-1.5,3.6c-.9,1-2.3,1.6-3.7,1.9-2,.5-3.3.6-4.6.6,0,0,0,0-.2,0-1,.6-1.5.4-2.4,1.2-.9.7-.5,1.5-1.7,2-.6.3-1.5.5-2.5.5-3.2,0-5.2-.9-6.8-2.1-.7-.5-1.3-1.1-1.9-1.8h-6.3c-3.2,0-.9.2-4.1.2s-3.5,0-5.3-.2c-1.7-.2-4.1-.3-5.7-.9-1.8-.7-3.5-2.6-3.5-3.4s0-1,1-1.7c1-.8,3.3-1.5,4.8-1.7,2.9-.4,7.2-.8,10-.9-.2-.6-.2-1.2-.2-1.8,0-1.1.2-2.3.3-3.7,0-2.4,0-4.9,0-7.3v-44.7c0-.9-.2-2.5-.2-3.2s0-1.3-1.4-1.5c-.7,0-3.5-.4-5.4-.7-2.6-.5-5.3-1.2-5.3-2.6s.4-1.1,1.3-1.8c1.1-.8,2.3-1.3,3.6-1.5,1.3-.3,2.7-.4,4-.6,2.1-.4,2.1-.3,2.9-1.5.2-.3.3-1,.3-1.8v-16c0-9.2.2-18.5,1.3-27.5.2-1.4.2-3,.4-4.6h-4.8c-1.1,0-2.1,0-3.4,0-1.7-.2-4.1-.3-5.7-.9-1.8-.7-3.5-2.6-3.5-3.4s.2-1.1,1-1.9c.8-.9,3.1-1.5,4.5-1.7,4-.6,9.7-.8,11.3-.8h2.1c1.3-3,3.6-5.1,8.1-5.1s6.5,1.8,8.7,4.7c2.4,0,4.5-.1,6.1-.1,2.8,0,9.1.1,9.1,3.3s-1.3,2.3-2.4,3.6c-.9,1-2.3,1.6-3.7,1.9-2,.5-3.4.6-4.6.6h-1.6c0,.4.2.7.3,1,1.3,3.6,1.7,7.1,2.1,10.9.4,3.5.6,7.1,1,10.6.4,3.3.9,6.5,1.3,9.8,0,1.1,0,2.2,0,3.3v1c0,1.8,0,3.6.4,5.4.2,1,1,1.9,1.1,2.9v2.1c0,1.2.3,1.5,1.9,1.5,2.6,0,12.2-.9,13.2-1,2-.2,4,0,6.1,0s2.5-.2,3.7-.2,2.5-.5,2.5-2.2-.4-4.5-.4-5.3c0-3.9,0-7.7.4-11.5,0-.7.4-4.4.6-8.5.2-3.6.4-7.5.4-10s-.3-3.9-.3-5.2v-3.6c-1.1,0-2.3,0-3.4-.2-1.7-.2-4.1-.3-5.7-.9-1.8-.7-3-2.6-3-3.4s0-1,1-1.7c1-.8,2.9-1.5,4.3-1.7,2.6-.4,5.3-.6,7.3-.7.4-.7,1.1-1.2,1.9-1.2,1.6,0,3.8-.6,4.1-.7h1.1c1.4,0,3,.2,4.3.6.8.2,1.4.5,2,.9,5.9-.2,12-.5,15.2-.5s8,.1,8,3.3,0,2.3-1.2,3.6c-.9,1-2.4,1.6-3.7,1.9-2,.5-3.4.6-4.6.6h-8.7c.6,1.8,1.6,3.4,2,5.3.7,3.5,1.8,7,2.6,10.6.6,2.9.4,5.8,1.2,8.7.8,2.9,1.1,5.6,1.3,8.6.2,2.5-.3,4.2-.3,6.7s.5,3.2.5,4.1,0,.6,0,.8c0,.9.9.9,1.8.9h2.3c1.8,0,3.9.2,4.6,1.7.2.4.3.8.3,1.2,0,2-2.1,3.9-3.6,4.6-.8.4-2.2.7-3.2.9s-1.6.3-1.9,1.1v.6c0,.7.2,1.8.2,2.3v1c0,1.9-.3,3.7-.3,5.6,0,4.7,0,9.5.5,14.2.4,5,1,10,1,15s0,4.8-.5,7.1c-.6,4.1-.8,8.2-1.1,12.4,0,.6-.7,1.1-.8,1.8,0,.8.4,1.6.4,2.5s0,.9-.2,1.4h6.4l-.4-.2Z"/>
  <path class="st0" d="M1729.9,532.6c0,2.5,0,7.3-3.3,7.3s-2.3-.3-3.6-1.3c-1-.8-1.6-2.1-1.9-3.3-.5-1.8-.6-3-.6-4.1s0-8.9,0-10.8v-4c-1.8,0-3.6,0-5.5.2-1.8,0-3.6,0-5.4.2-1.9,0-3.8.3-5.6.5-.7,0-1.4,0-2.1.2h-.2c-1.8,0-2.2.5-2.2,1.4s.3,1.6.4,2.1c.3,1.9.6,5.7.7,7.7,0,1.9.3,3.7.3,5.6s-.3,3.5-.3,5.2.8,4.4.7,6.1c0,1.9-.2,3.8-.3,5.6-.2,3.9,0,7.8.2,11.7,0,1.8.2,3.7.3,5.5,0,.9,0,1.7,0,2.6s.4,3.3.4,4.2v10c0,3.9.4,7.8.2,11.6,0,1.8-.4,3.6-.4,5.4s.2,4.1.3,6.2c.2,4,.3,7.9.3,11.9v11.9c0,.6,0,1.3,0,1.9h5.3c2.8,0,8.2.8,8.2,4s-.3,2.3-1.5,3.6c-.9,1-2.3,1.6-3.7,1.9-2,.5-3.4.6-4.6.6h-6.9c-.6.4-1.3.7-1.9,1.1-1.6,1-3,1.3-4.8,1.3s-2.7,0-4,0c-2.4,0-3.9-.8-5.7-1.8-.5-.3-.9-.5-1.4-.8-2.9,0-5.4.2-8.4.2s-3.5,0-5.2-.2-4.1-.3-5.7-.9c-1.8-.7-3.5-3.3-3.5-4.1s0-1,1-1.7c1-.9,3.4-1.5,4.8-1.7,3.6-.5,7.2-.7,9.1-.8v-.2c0-2.1-.6-4.1-.6-6.3,0-3.6.3-8.1.4-11.6,0-3.8.3-7.7.4-11.5.2-4.6.4-9.2.4-13.8s0-6.5,0-9.8c0-1.9.5-3.7.6-5.6,0-1.7.6-3.5.7-5.2,0-3.9,0-7.8,0-11.6s.2-8,.2-12.1,0-6.8,0-10.3,0-10.6.2-15c0-.9.3-2.2.3-3.2s-1.2-1.5-1.7-1.5c-1.3,0-8.3.2-9.3.2-3.6,0-7.2,0-10.8-.5-.6,0-1.2-.2-1.8-.3.3,4.3.4,11.8.4,16s0,7.3-3.3,7.3-2.3-.3-3.6-1.3c-1-.8-1.6-2.1-1.9-3.3-.5-1.8-.6-3-.6-4.1s0-7,0-8.9-.2-5.1-.2-7.7c-.7-.9-1.2-2-1.2-2.9s.4-1.6,1.5-2.2c1.8-.9,2.6-1.9,5.7-1.9h4.7c3.9,0,7.8,0,11.8-.5,1.8-.2,3.7-.4,5.5-.5h3.2c.9,0,1.4,0,2-.2,1.4-.4,2.6-1.6,4-2.1,1.2-.5,2.4-.5,3.7-.5,2.2,0,4.4,0,6.6.6.8.2,1.5.5,2.3.9s1.6,1.2,2.5,1.6c.5.2,1.1.2,1.8.2,1,0,2-.1,2.8-.1h20.8c4.9,0,5.1.2,7,1.3,1.4.8,2.3,2.4,2.3,4s-.2,1.6-.7,2.2c0,.3,0,.4.3,2.4.4,4.4.5,11.1.5,15.9"/>
</svg>