<?xml version="1.0" encoding="UTF-8"?>
<svg id="Layer_1" xmlns="http://www.w3.org/2000/svg" version="1.1" viewBox="0 0 960 540">
  <!-- Generator: Adobe Illustrator 29.0.1, SVG Export Plug-In . SVG Version: 2.1.0 Build 192)  -->
  <defs>
    <style>
      .st0 {
        fill: #4f2170;
      }
    </style>
  </defs>
  <path class="st0" d="M960,26.9c-.9,0-4.8-3.7-37.9-6.9s-41.8-1.5-54.2-1.6-24.7-.5-33.6-1.1-41.6-4.5-49.8-4.7-126.7-2.4-153.6-1.7c-25.4.7-92,.4-139.3,1.5s-127.2,2.2-149,2.5-132.2,1.3-142.5,1.3-35.4.6-44.8,1.5-36.9,2.5-40,3.1-15.3,1.9-23.5,2.3-13,.5-19.5,1.1-11.6,1.3-16,2.2c-7.8,1.6-17.4,3.5-26.6,15.9s-8.6,31.7-9.2,36.1-.6,46.7-.7,51.1c-.1,7.9.3,19.8-1,35.7s-3.4,64.3-2.9,59.1c1-12.4-.8,53.6-.6,62.2.5,31-1.3,49.2-1.3,49.2,0,0-1.4,27.1-2.8,36.9s6,11.5,2.5,39.2c-3.5,30-.3,38.9-.3,38.9,0,0,2.5,9.8,2.7,13.2s-1.2,9.7-.2,17.2,3.9,13.8,13.1,24.2,3.7,4.9,5.7,6.8c11.6,11.4,92.4,14.7,99.1,14.7s36.3,2,87.4,1.3c20.3-.2,130.1-.8,155.7-1.9,24.6-.2,90.5.2,90.5.2,0,0,124.9,3.1,143.7,3.6,14.1.3,97.7.4,138.5.6,13.7,0,52.7.1,52.7.1,0,0,95.8.3,109,.3s48.7.2,48.7.2v8.8H0V0h960v26.9Z"/>
</svg>