<?xml version="1.0" encoding="UTF-8"?>
<svg id="Layer_1" xmlns="http://www.w3.org/2000/svg" version="1.1" viewBox="0 0 468.3 514.8">
  <!-- Generator: Adobe Illustrator 29.0.1, SVG Export Plug-In . SVG Version: 2.1.0 Build 192)  -->
  <defs>
    <style>
      .st0 {
        fill: #bababa;
      }
    </style>
  </defs>
  <polygon class="st0" points="280.4 95.9 283.2 96.1 283.9 96.3 285.9 95.9 286.7 96.3 288.7 95.6 290.2 94.2 289.1 93.9 288.8 93.3 288.1 93 285.7 93.2 281.5 92.8 281 93.5 280 93.9 280.1 94.6 279.9 95.1 280.4 95.9"/>
  <polygon class="st0" points="292.1 95.8 292.6 95.5 290.9 95.1 289.9 95.8 292.1 95.8"/>
  <polygon class="st0" points="273.9 94.7 272.9 94.6 272.3 94 271.9 94.1 272.3 94.8 273.1 95.1 273.9 94.7"/>
  <polygon class="st0" points="198.8 87.3 199.2 86.6 198 86.6 197.6 87.4 198.8 87.3"/>
  <polygon class="st0" points="225.8 93.3 224.8 91.7 220.3 91.4 218.1 91.8 216.8 91.6 215.8 91.8 215.1 92.6 216.2 93.3 216.9 93.1 217.7 93.4 218.3 94.7 219.1 95.3 220.5 95.3 221.4 95.9 222.8 96 222.8 94.9 223.8 95 224.3 95.4 224.9 95.3 225.4 94.5 226.2 94.9 228.1 94.9 228.2 94.4 227.3 93.6 225.8 93.3"/>
  <path class="st0" d="M248.4,85.1l-1-.3h-2.2s-.3.5-.3.5c0,0,1.2.6,1.2.6l3.1,1-.3.5.4.8-.4,1.2.5.9,1.1.3,1.2,1-.3.6h-2.4c0-.1-.5.2-.5.2l-1-.3h-1.4c0,0-1.2-.4-1.2-.4l-1.4.5v-.5c0,0-.6-.2-.6-.2l-1.8.4-1-.8-1.2.5-.5.6.4.8,1.4.2,1.4,1.4.6.2v-.9c.1,0,.8-.4.8-.4h2.6c0,0,1.1.6,1.1.6h3.2c0,.1.6-.2.6-.2l1,.4h.9c0,0,.6.1.6.1l.6,1.1-.4.8,1,.4.3.5.8.3.7-1.4,1.5-1.6-.2-.5.5-.7.7.5h.8c0,0,.7-1.1.7-1.1l.8.4v1c0,0,.7.4.7.4l1.6-.3,1.6-1.2,1.7-.2,1.8.3,1.1-.3.8.6h1.3c0,0,1.6.5,1.6.5l.4-.8h.7s.6-.8.6-.8l-.5-.7-2.3-1.2h-.9s-1.4-.4-1.4-.4h-1s-1.5-.7-1.5-.7l-1.6-.9h-1.1s.8-.3.8-.3l1.6.4,2.5.3,1-.3-.8-.5h-.7c0,0-1.9-.3-1.9-.3l-.9-1.5h-1.1s-.5.1-.5.1l-.8-.5-4.9-1-.6.3-1.1-.3-1.9.2-.6.9h0s-1.1-.2-1.1-.2l-1,.2-1-.9-2.5-.3-.7.3Z"/>
  <polygon class="st0" points="247.9 90.8 247.7 90 246.6 89.3 245.5 89.7 246.3 90.3 247.9 90.8"/>
  <polygon class="st0" points="247.9 83.6 248.7 84.2 250.9 84.2 248.9 83.2 247.9 83.6"/>
  <polygon class="st0" points="189.9 74.3 189.4 74 189.6 74.5 190.9 75 192.5 74.6 192.7 73.7 191.7 72.6 190.6 72.4 190.2 73.1 190.5 73.7 191.1 74 190.5 74.4 189.9 74.3"/>
  <polygon class="st0" points="180.7 72 181.1 72.2 181.2 73 182.6 72.3 183.6 72.3 184.9 70.8 186.4 71.1 187 70.7 187.7 71.2 188.9 71 190.7 69.3 191.7 69.1 192.4 68.5 194 68.7 195.2 68.7 197.7 69 198.4 69.5 197.7 70 196.4 69.9 195.5 70.4 196.4 71 199.8 71.5 200.6 71.3 201.6 71.4 202.5 72.1 204.2 72.3 205 72.2 205.4 71.7 206.2 72.2 206.2 72.8 208.1 73.9 209.6 74.2 210.3 73.9 211.2 74.6 212.3 74.5 213.2 74.9 214.9 74.4 215.5 74.7 216.4 77.6 218.3 79.6 219.3 79.7 219.7 79.3 221 80 223.1 80.1 223.4 80.6 224.3 80.9 224.2 81.9 222.7 82.1 220.7 83.6 220.6 84.5 222.7 84.8 224.1 84.2 225.1 84.6 227.9 84.1 229.5 84.3 231.5 85.1 234.5 84.6 235 84.1 235.7 84.2 236.5 83.6 238.5 83.9 240 83.6 240.7 82.6 240.2 82.1 239.1 82 238.4 80.6 235.9 79.7 232.8 79.6 232 79.4 232.7 78.9 233.1 77.7 232.4 77.4 231.4 77.7 230.3 77.7 228.2 76.3 227.6 76.7 226.7 76 225.2 75 224.2 75.8 223.8 75.3 224.1 74.7 223.4 74.4 223 75 222.3 74.4 220.1 73.9 218.6 72.7 217.3 72 215.9 71 212.6 70.8 211.4 70.4 211 69.3 209.7 68 208.6 68.2 208.1 67.6 203.8 67 202.3 67.4 200.5 67.1 199.5 66 196.8 65.5 194.4 65.5 193.2 66.3 190 66.4 187.6 66.9 186.7 67.5 184.2 68.1 183.3 68.9 182.2 69.4 182 70.5 182.7 71.3 182.4 71.7 181.4 71.3 179.3 72.2 178.5 72 178.4 72.6 179.5 73.1 180.7 72"/>
  <polygon class="st0" points="223.4 60.2 222.4 60.4 222.7 60.9 223.4 60.2"/>
  <polygon class="st0" points="222.1 56.3 221.3 56 220.8 57.3 219.8 58.6 220.6 59.3 221.6 58.9 221.9 59.8 223.3 59 222.3 57.4 222.1 56.3"/>
  <polygon class="st0" points="220 48.3 222.3 47 223.4 47.3 224.3 47.4 223.1 46.4 221.3 46.3 219.6 47.1 218.9 46.7 217.4 46.7 218.9 48.1 220 48.3"/>
  <polygon class="st0" points="222.1 60.8 221.6 61.2 222.2 61.4 222.1 60.8"/>
  <polygon class="st0" points="226.8 56.6 227.3 55.9 225.9 55.6 224.4 56.2 225.2 56.6 226.8 56.6"/>
  <polygon class="st0" points="222.6 63.9 223.5 63.7 224.1 62.9 223.8 62.2 223.9 61.6 223.5 61.1 222 61.8 222 62.6 222.6 63.9"/>
  <polygon class="st0" points="243.8 79.5 246.9 79.3 247.9 78.2 247.9 77.1 247.5 77.3 246.8 78 245.6 77.4 244.2 78.1 243.8 79.5"/>
  <polygon class="st0" points="240.8 68.7 241.5 69.4 242.4 69.5 242.3 68.7 240.9 68.1 240.8 68.7"/>
  <polygon class="st0" points="242 71.1 241.3 71.2 241.2 71.7 241.8 71.7 244.3 70.5 244.4 69.4 244.2 68.9 243.1 69.2 243.2 70 242 71.1"/>
  <polygon class="st0" points="247.9 76.2 248.6 76.5 248.6 75.6 247.9 76.2"/>
  <polygon class="st0" points="249 71.9 250.1 72.3 250.2 71.9 248.4 71.1 247.4 71.4 247.9 71.9 249 71.9"/>
  <polygon class="st0" points="241.8 62.3 241.4 61.7 240.7 62.7 241.2 63.1 241.8 62.3"/>
  <polygon class="st0" points="232 64.3 232.9 64.4 232.2 63.5 232 64.3"/>
  <polygon class="st0" points="226.4 47.4 227.7 48.8 226.9 49.4 227.3 50.3 226.8 52 227.8 51.1 227.7 50.3 228.9 49.7 228.9 48.3 228.1 47.9 227.9 46.9 226.1 45.8 224.5 45.8 226.3 46.4 226.4 47.4"/>
  <polygon class="st0" points="232.5 56.7 232.1 57.5 231.4 57.8 231.9 58.3 232.5 58.1 233 56.6 232 55.3 230.4 54.5 230.3 55.2 231.7 55.7 232.5 56.7"/>
  <polygon class="st0" points="235.9 61.7 235.4 62.1 235.9 62.7 237.3 62.6 237.3 62 236.5 60.6 236.2 59.6 235 58.8 234.8 59.4 235.7 60.3 235.9 61.7"/>
  <polygon class="st0" points="236.2 64.7 236.9 65.9 236.3 66.3 237.3 67.6 238 68.4 238.7 68.5 237.7 66.9 237.4 65.7 236.4 64.1 236.2 64.7"/>
  <polygon class="st0" points="31.4 49.9 31.7 50.3 31.9 51.3 32.5 51 32.3 50.2 31.7 49.5 31.4 49.9"/>
  <polygon class="st0" points="107.6 54.8 107.8 55 108.1 54.1 107.8 54.1 107.6 54.8"/>
  <polygon class="st0" points="107.5 56.1 107.4 55.4 106.9 57 107.5 56.1"/>
  <polygon class="st0" points="32.8 54.1 33.3 54.2 33.5 53.7 32.9 53.5 32.8 54.1"/>
  <polygon class="st0" points="108.5 52.9 108.1 53 107.9 53.6 108.3 53.5 108.5 52.9"/>
  <polygon class="st0" points="375.9 187.3 376.5 186.6 377.2 186.4 377.7 185.7 377.1 185.7 376.3 186.1 375.8 186.4 375.1 187 375.3 187.9 375.9 187.3"/>
  <polygon class="st0" points="374.3 188.7 374.6 189.2 375.2 189.3 375.2 188.9 375.1 188.5 374.4 188.1 374.3 188.7"/>
  <polygon class="st0" points="375.9 188.1 375.7 188.5 376.2 188.8 377.6 188.9 378.1 189.1 378.9 188.8 379.1 188.2 378.5 187.7 376.8 188.1 375.9 188.1"/>
  <polygon class="st0" points="371.6 191.8 371.2 192.3 371.5 192.4 372.4 192.3 372.7 191.7 372.5 191.4 371.6 191.8"/>
  <path class="st0" d="M375.5,179.4c0,0,.6,0,.6,0v-.7c.1,0-.7-1.3-.7-1.3l-.8-.5-.2.3.4,1.3.6.8Z"/>
  <polygon class="st0" points="373.5 189.6 373 189.7 372.5 189.6 372 189.8 370.8 190.7 370.1 192.3 370.6 192.2 370.8 191.8 372.1 190.8 372.7 190.8 373.7 189.9 373.5 189.6"/>
  <polygon class="st0" points="379.8 190.1 381.1 190 381.5 189.5 380.9 189 380.1 189.1 379.8 189.5 378.9 189.8 379.8 190.1"/>
  <path class="st0" d="M465.1,229l.7-.5v-2.4c-.1,0-.8-.4-.8-.4l-.2-1.2-2-3.8v-1.3s-.3-1.6-.3-1.6l-3.8-1.5h-2.2s-1.6.6-1.6.6l-1.1-1.3-1.3-.2-1.2-1.2-1.7-.7-1.2-.2-2.6-2.4-2.1-2.5-1-.2-1.4-1.2h-1.3s-3.5-2.2-3.5-2.2h-1.6s-1.8-.7-1.8-.7l-1.1.5h-1.7s-1-.5-1-.5l-1.1.4-.5.6-.7-.6-1.6-1-.3.4-.7-.5-.3.6v.5s-.9-.7-.9-.7l-.2-.5-.7-.2.2.5-.3.2-1.7-.6h-.6c0,0-1.5-.2-1.5-.2l-3.2-1.4h-1.2s0,.3,0,.3l.2.6-.3.3-.7-.3h-.3c0,.1-.2.5-.2.5l-1.1.4-.4.5-.2,1.2-.6-.9-.3-.8-.6.2v.9c0,0-.9,1.5-.9,1.5v1.3s-.3-1.3-.3-1.3l.4-1.2-.2-1.1.6-1.6.5-.4-.4-.3h-.9c0,0,1.3-1.2,1.3-1.2l-1.6-1.5-.9-1.3h-.9c0,0-1.3-.2-1.3-.2l-.8.8-.8.3-.4-.8-.5-.3-.2-.7-.7-.5h-.9c0,0-.5-.5-.5-.5l-.8-.3-.5.5v-.4s-.6-.3-.6-.3l-.4-.7-.7.2-1.3-.3-1.7-.9h-.5c0,0-.3.3-.3.3l-1-.6h-.8c0,0-.2.7-.2.7h-.5s-.3-.7-.3-.7h-1.4c0,0-1.2.4-1.2.4l-.7.9v.6c0,0-1.2,1-1.2,1l-1.7.8-2.1,1-1,1-.7,1.4-.3,1.3-.6.7-1,.8v.6c0,0,.2,1,.2,1l-.3,1.9-.4-1.1-.8-1.1v-.8c0,0,.9-.8.9-.8l1-.6v-1.4c-.1,0,.4-1.1.4-1.1v-.6c0,0-.8,0-.8,0l-1.4.4-1.5-.4h-1.3s-1.1.3-1.1.3l-.7-.5h.8c0,.1,1-.5,1-.5l1-.2,1.7.3,1-.2,1-1h.4s.5.4.5.4l.6-.2,1-.5,1.7-.5v-1.1s1.6-1.5,1.6-1.5v-1.1s.6-.7.6-.7v-.9c.1,0-1.5-.3-1.5-.3l-1.3-.9h-1.2s-1.7.8-1.7.8h-1.4s-2-.7-2-.7l-2.2-.2-1.6,1.4v.6c0,0,.6.3.6.3l.3.5h-.8c0,0-.5.3-.5.3l-.4.8-.3-.8-.5-.2-1.3.4-1.4,1.6-1.9,1.7,1.4-1.6v-1s.3-.6.3-.6v-.7c.1,0-.4,0-.4,0l-1.2.8-.6,1.1-.6,1.3-1,.5,1-1.5.2-1.2,2.1-2.1.5-1.5.8-.9,1.2-.5,1.2-.7.9-.3,1.1-1.4,2.8-2.3.2-.6.6-.3-.6-.7.2-.7.4-.3v-1c0,0-1-.7-1-.7h-1.2s-.4.4-.4.4l-.5-.8-.7-1.9-1.3-2.8-1.2-1.4-.8-1.9v-1c0,0-.2-1-.2-1l-.5-.4-.2-1-.7-1.2h-.3c0,.1,0,.9,0,.9l-.5.6-1.4.7h0s1-1.1,1-1.1v-1.2c0,0-1.1-1-1.1-1l-.5.5-.7-.5v-.8c-.1,0-2.1-1.9-2.1-1.9l-.5-.2-1.3-1.1-3.3-.8-1.5-.8-1.7-.2-1.1.6-1.1.5h0s1.2-1.2,1.2-1.2v-.7c0,0-1.3-.5-1.3-.5l-2-.3-2.3-.8h-.8c0,0-1.1.4-1.1.4l-1.8-.2-2.3.3-1.9-.5h-2.6s-1.5.4-1.5.4l-.3,1.1h0s-.3-1-.3-1v-1.2s-.3-.8-.3-.8l-2.2-.5-1.9-1.7-1.1-.7-.7.3-1.2.3-.8.8-.3.9-.2-1.2.3-1.5.4-.9-.6-1.6-.9-.6-2.3-1.2-1.5-1.5v-.8c-.1,0-1.2-.9-1.2-.9l-1.1-.2-.3-.2-.3-.2-2.2-.9h-.8s-.8.2-.8.2l-1.2-.2h-.7s-1,.3-1,.3l-1.9.2-1.4-.2h-.7c0,0,1.2-.3,1.2-.3h.7c0,0,.9-.4.9-.4l.5-.8,1.2-.8.3-.5-.8-.5v-.3c0,0-.2-.8-.2-.8l-1.6-.7-1.9-.5-.6-.5-.7-.4h-1.1c0,0-.4-.5-.4-.5l-1.2-.5h-.6s0,.8,0,.8l-.7-.9-.4-1-1.2-.5-.3-.5.6-.4h2.6c0,.1,1-.4,1-.4h1.6c0-.1.2-.9.2-.9l-1.5.2-2.6-.5-1.9.2h-1.3c0,0-2.6.6-2.6.6l-.9-.3h-1.1c0,0-2.2,1.3-2.2,1.3l-1.1.2-1.3.5-.5.5h-1.7c0,.1-.6.4-.6.4l-.9-.3-2.5-1.5-.5-.9h-.8c0-.1-2.9,0-2.9,0l-5.5.7h-2.7c0,0-1-.5-1-.5l-.4-.7v-.9s.7,0,.7,0v-1c-.1,0-1.3-1.4-1.3-1.4l-1.1-.3h-2.8c0,.1-1.3-.5-1.3-.5h-.9c0,0-.8.1-.8.1l-.9-1.3v-1.3s-.4-1.6-.4-1.6l-.5-.2-1.7.5-1.6,1.6.4,1.1.5.4,1.1-.5h1.1c0,0,.9,1,.9,1l-.2.6-1,.2-1.2-.5-.5-.3-.3.3v.4s-1.4.6-1.4.6l-2.6.3-2.6.9-.8.8v.8s.6,1,.6,1v2s.2,1.4.2,1.4l.5,1.1-.9,1.5-2.1,1-1-.2v-1.4s-1.1-1.2-1.1-1.2l-.3-1,1.1-.8v-.6c0,0,2.3-1.8,2.3-1.8v-1.6s-.6-1-.6-1v-.5c0,0,0-.6,0-.6l-.9-.6-.4-.8.3-.7,1.4-.5,1.4-.3,1.3-1.2.2-.2.7-.4.3-.6-.7-.8-2.1-1h-.8c0,0-.3.4-.3.4v.5c0,0-1,0-1,0l-.5.3h-1c0-.1-.9.1-.9.1l-.5.5.5.5-.4.5-1.5.6-2,1-1.4.8-1.6.2h-1.7c0,0-1.9-.1-1.9-.1l-1.2.5v.6c0,0,.4.8.4.8v.8c-.1,0-1,.7-1,.7l-.6-.2.2-.8v-.3c-.1,0,.7-.2.7-.2h-1.2c0-.1-1.5-.7-1.5-.7h-.8s-2,1-2,1l-.5.7-1.3,1.3-1.6,2.5-.2.7.5-.2.4.4.2.8-.4.9-.9.3h-1.1s-.9.4-.9.4l-1.5,1.2-.6.3-1.2,1.4h-.7c0,0-1,0-1,0l.3.9,1,1v1.2s-.6,1.1-.6,1.1h-.6c0,0-1-.8-1-.8v-.4c.1,0,.5-.6.5-.6l-.9-.3-.4-.9-1.3-1-.5-.4-.8-.4-.2-.5-1-1.1-2.4-1.3-1.4-.3h-2.6c0,0-.8-.2-.8-.2l-.3-.5-.9-.3h-.6c0,0-1.7,1-1.7,1l-1.8.3-3.6,1.5-1.1.8h-1c0,0-1.9,0-1.9,0l-2-1.2-1.3-.6-.3.2.7.4v.5s-.9.1-.9.1l-1-.4-.3-.4.2-.2h.4c0,0-.3-.4-.3-.4h-.5s-.7-.2-.7-.2l-.6-.6-.2-.6v-.2c0,0-.9-.5-.9-.5l-.9-.3-.6-.7-.3-.8-1.2-1-.7-1v-1.1c-.1,0-.5-.9-.5-.9h-.6c0,0-.2.5-.2.5h-1.2s.3-.4.3-.4h0c0-.1.6-.4.6-.4l-.2-.7-.6-.7-.3-1,.7-1.2.4-.8v-1c0,0-.3.6-.3.6l-.2.5-.6.3v-.7s.3-.8.3-.8l.6-1.1-.2-.6v-.7c0,0,.8-1.4.8-1.4h.5c0,.1-.2.5-.2.5,0,0,0,.6,0,.8,0,.2,0,1,0,1h.3s.5-.6.5-.6l.3-1.9v-2.3s.2-.5.2-.5l-.4-.6-.4-.2v-.5s.4-.3.4-.3h.4s.2.4.2.4l.4-1.2,1-1,.5-.7v-.5c.1,0-.4-.4-.4-.4v-.4c0,0,.3-.6.3-.6v-.8c-.1,0,0-1.3,0-1.3l.3-.5.4-.3.4-.3-.3-.5-1.3-1-1.3-.5v.2c0,0,.4.8.4.8h-1.3c0,0-1.5-.2-1.5-.2l-.6-.4h-1.1c0-.1-1-.2-1-.2l.3-.4.8-.2v-.5c0,0,.4,0,.4,0l.9.2,1.6.4h.2c0-.1-1-.9-1-.9l-1.4-.7h-1c0,0-1,0-1,0l-.6-.3-.3.6-.8-.5-2.6-.3-2.5-.2-1.3-1-1.2-.5-.3.6.5.3-.9.3-.6.3-1-.3-1.9.4-2.5-.2h-3.5s-1.5.7-1.5.7l-.7-.5-.5-.3h-1.1c0-.1-.3.5-.3.5l-.9-.6h-.8s-.4-.6-.4-.6h0s.5-.8.5-.8l1.1-.9.6.5,1.7-1.9.6-1.3v-1.6c0,0-.5-.6-.5-.6l.3-1.5.7-.9.2-2.4.2-.5v-.5c-.1,0-.9,0-.9,0l-.6.5-.3-.5h0s1-.7,1-.7l1.3-1.2.7-.2v1c-.1,0-.7.5-.7.5v.3s1.3.7,1.3.7l.4.9.3-.2,1.1-1.6,1-3.1.6-.8h-.6c0,0-.6.5-.6.5l-.5-.2v-.4s1.3-1.1,1.3-1.1l.2-.7h-1s-.7-.6-.7-.6l.4-.3,1.2-.6.2-1.3.5-.7,2.6-1.9,1.3-1.8,1-1.2v-1.1c0,0-1.7-1.9-1.7-1.9h-1.1s.2.6.2.6l-.7.2-2.7-.6h-2.3s0,.5,0,.5l-1.4.5-.5-.4h-1.4c0,.1-.9,1.1-.9,1.1l-5-.2-3.8.7v.7s.9,0,.9,0l-2.2,2-.2,3.1.2.4-2.2,1.9v1.7s-1.2,1.1-1.2,1.1l-.9.2-2.6,1.1.2.2,1.2-.6-.3.8v1.4c0,0-1.2,1.1-1.2,1.1h-.7s-.3.5-.3.5l-.7-.6-1.3-.5.3-.6,1.1-.5-1.6-.4-.5.6-1.3-.3h-1.6s-1.1.7-1.1.7h-1.4s-2.1.1-2.1.1l-.3.4-2.5,1.1h-.7s-.5-.5-.5-.5l-2,.3-1.4.5-.4-1.3-1.3-1.6-1.7-.6-.4-.4h-1.6c0,0-.6,0-.6,0l-.8-.7-2.4-2.5-.3-.8v-.8c.1,0-1-1.4-1-1.4l-.5-1.1-3.1-3-.2-1-.7-.9.4-.7-.3-.7-.6-2-.9-.7.2-1.1,1.3,1.4v1.7c.1,0,.5-.3.5-.3v-1.5s-1.5-2.1-1.5-2.1l.2-1.1-.3-1.9-.3-.8,1-1,.3-2.3-.3-1.5.7-2.4v-.7c0,0,.4-.7.4-.7l-.4-.4v-1.2s.6-.5.6-.5l.4-1.4.3-.5-.8-.5.7-.7v-1.4s1,0,1,0l-.2.9-.2.5h.7c0,0,.2-.9.2-.9l.9-1,.4-1.1.5-.4.2-1.3.2-.5-.8.6-.4,1.4-1,.5.3-.7-.5-.2-.3-.6-1.1-.2-1.1-.5-1.9-.6-.9-.8-.7-.4h-.7c0,0-.7-.2-.7-.2h-.1c0-.1-.5-.6-.5-.6v-1.3c0,0-1-2.9-1-2.9v-.3c0,0,0-.3,0-.3v-.9c.1,0,.3-.9.3-.9l-1-.9-.5-.8-.3-1-.9-.4-.2-.6-.5-.3-.7-1.8-.3-.7-.6-.3v-1.2c0,0-.2-.8-.2-.8l-.3-.4-.4-1-.9-1.2-1.1-.8-.5-.7-.8-.3h-.8c0,.1-.2-.2-.2-.2l-.4-.2h-1.1s-1,0-1,0h-1.1s-.3.6-.3.6h-.5c0,0-.1,0-.1,0h-.4c0,0-.7,0-.7,0l-.6.5-.9,1.3-.5.5v.3c.1,0,0,.4,0,.4h-.6c0,.1-.8.7-.8.7v.3c-.1,0-.7.2-.7.2h-.5c0,0-.3-.4-.3-.4l-1.2-.5-1-.3-.2-.3-1.2-.5h-.7s-.4-.4-.4-.4v-.3c0,0-.3-.4-.3-.4l-.6-.2h-.4s-.5-.4-.5-.4h-.4s0-.3,0-.3l-.2-.7-.8-.8-1-1v-.4s.7-.1.7-.1l.3-.2v-.8s-.7-.5-.7-.5l-.2-.4h-.3c0,0-.4-.5-.4-.5v-1.1c-.1,0-.6-.7-.6-.7l-.8-.5-.7-.2.3-.4v-.4c0,0-.8-.6-.8-.6l-.9-.3.2-.5-.5-.7h-.6s0-.5,0-.5l-.5-.5-.9-1.1-1.1-.6-9.5-.4-.2,1.8-16.8-.8L16.6,4.2l.2-.4-.3-.4H2.5c0,0,.2,1.1.2,1.1l.7,2.5.7,1.1.6.7-.5.3-.2.8.4.9,1.5,1.6v.5c0,0-.4.3-.4.3l.2.6,1.2,1v1c.1,0-.2.5-.2.5v1c-.1,0,.6.6.6.6l.3.6v1.7s.5,1.4.5,1.4l1,.8h.7s1.6,1.4,1.6,1.4l.8,1,.2.8,1.4,1.2.6,1.5.5.2.7,1.1-.7.7v.5c0,0,.4.6.4.6l-.3.8-.7-.3-.6.5v.3c.1,0,1.1.2,1.1.2l-.2.6-.4.5-.8-.4-1.4-.2-.9-.3h-1.5c0,0-.3.4-.3.4l1.2,1.3,1,.4v1c0,0,.6.9.6.9l1,.3,1.3.6v.5s.8,0,.8,0l.8.3-.2.4.4.7.8-.3h.8s1-1,1-1h.5c0,.1-.4.9-.4.9l.3,1.6,2,1.7.8.3h.6c0-.1.6.6.6.6l.7,1.9v2c.1,0-.3,1.6-.3,1.6l-1,1.4.2.8,1.1.8h.5c0,0,.3.6.3.6l1.1.2.5,1,2.4,2.3.9.3.4.7.9.9h1.2c0,.1.5.8.5.8v1.3c0,0,.8.5.8.5v.7c0,0,.6,1,.6,1l.7.2,1.8-.6,1.1-1.3v-1.2c.1,0-.6-.4-.6-.4l-.3-.9-.5-.5-.3-.9-.9-.4-.4-.6-.6-.7-.5-.3-.3.2v.7s-.5.2-.5.2l-.2-.6-.9-.6-1-1.1v-.6c-.1,0,.5-1,.5-1v-1s-.9-1.1-.9-1.1l.3-.7v-.6s-.6-.6-.6-.6v-.7c0,0-.6-.7-.6-.7v-1s-.3-.5-.3-.5v-1.2c-.1,0,.2-.7.2-.7l-.3-1.9-.7-1-.3-.7h-.4c0,0,0,.3,0,.3v.6s-.4.3-.4.3l-1-1.4v-.6c0,0,.3-.7.3-.7l-.3-.5h-.5s-.3-2-.3-2l-.9-1.3-.5-.2-1.1-.9v-1.2s.1-1,.1-1l-.9-1.3-.8-.2-.5-.4v-1.1c-.1,0-.8-.7-.8-.7l-1-.4-.3-.9.2-.6-.3-1.3-1.6-1-.5-.7h-.6c0,0,0-1,0-1l-.8-1.4-.6-.6.5-.8v-3.5c0,0-.3-2.1-.3-2.1l.5-1.1.6-1.7-.2-.9-.4-1.1.7,1.2,1.6.6,1,1.4.7.5h1c0-.1.6-.5.6-.5l1,.8.3.6h1.1c0,0,1.2.7,1.2.7v.5s-.8.8-.8.8v.9c0,0,.6,1.2.6,1.2l.3,1.7.5.8v1.2c.1,0-.1.6-.1.6l.4.9,1.4,1.7v.5c0,0-.4.5-.4.5l.4.7h.5s.4.6.4.6l.6,1.6.8.3.3.8v1.1c.1,0,.6.4.6.4l.8.2.6,1.2.3.9.7.5.2.5h.8c0,0,.4.3.4.3l.8-.3.6.4v1.1c0,0-.5.6-.5.6l.2,1.4,2,1.6h.7c0,0,.7.2.7.2l-.3.9.5.8,1,.2h.9c0,0,1,1,1,1l.2.8.8.4.4-.3.3.3.2.6-.5.5-.6-.5-.8.2-1,.9-.6,1.4v1c.1,0,1.1.6,1.1.6h1.1c0,0,.7.6.7.6l2.3,1.6,1.3.3h.7s.3.6.3.6l.4.9.5.6-.5.8-.7.2v.4c0,0,1,.5,1,.5l1.7.6v.6c0,0,.6.3.6.3l1.5,1.2,1.7,2,1.3,2.1,1.9,1.7v1s2.1,2.3,2.1,2.3l.2,1-.4.9.4.7.6,1.4,1.2,2.7v1.1c0,0-.6.9-.6.9l-1.4,1-.2.6h.6c0,0,.7.6.7.6l-.5.5h-1.4c0,0-.7.3-.7.3v.5s.8,1.8.8,1.8l.7.7v.7s1.1,1.2,1.1,1.2l.4,1.2.5.4h.9s.3.6.3.6l1.8.4,1.3-.2h.7c0,.1-.6.7-.6.7v.4s1.4.5,1.4.5l1.5,1.2,1,1.4.8,1.1,1.2.4h.5c0-.1,1.2.3,1.2.3h.7c0,0,2.2.9,2.2.9h.9c0,0,.3-.3.3-.3h.7s.5.6.5.6l2.8,2.4h.8c0,.1,1.7,1.6,1.7,1.6l2.5.9,2.9.4,1.4.6.7,1h1.6c0,.1,1.5.8,1.5.8l.9-.3.3.2.8,1.1,1.5.6h1c0,0,.5,0,.5,0l1.1.6,2.1.8h2s1.5.8,1.5.8l2.9,1h1.2s3-1.1,3-1.1h1.3s1.6-.9,1.6-.9h1.2c0-.1,1.5-.2,1.5-.2h.6c0,0,0-.2,0-.2l-1.1-.2h-1s0-.5,0-.5l1.3-.6.4.2v.5s.7-.3.7-.3h.8s0,.4,0,.4h-.6s-.3.2-.3.2l.4.2h.8s1,.3,1,.3l1.8,1,.8.6v-.3s-1.3-1.2-1.3-1.2l-1.9-.7v-.3c0,0,.3,0,.3,0l.2.2,1.1.2,1,.8,1,1.1v.4s.5.6.5.6l4,2.9,1.3.3.2.6,1.6,1.1.9,1,.9,1,.7,1h.9c0,0,.8.9.8.9l3.1,1.1h1.8c0,0,1.4,0,1.4,0l2.2.7.5.2h1.1s.9.8.9.8l1.3.3h.2s0,0,0,0h.5s2,.8,2,.8l1.8.9.3-.4-.8-.4.4-.2h1.1c0,0,.9,1.1.9,1.1l.6.5h2.7c0,0,.8-.8.8-.8l-.3-.5.3-.3h0s0,0,0,0l.6.3.3.4h.5s.3-.3.3-.3l.5.2v.6s.2.5.2.5h0s0,.6,0,.6h-.5c0,0-1-.3-1-.3l-.2.3,2.1,2.2,1,.6v.6s1.6,1.3,1.6,1.3l1.4,1.7,2.7,2.5h.7c0,0,.4.3.4.3h.1c0,0-.4,1.2-.4,1.2l-.4.3.3.3.9.2.2,1-1,.5-.6,1.1.2,1,1.5,1.2h1.6c0,0,.9.6.9.6l.5.8h.5s.7-1,.7-1l-.3-.9-1.5-1-.4-.5.5-.3,1,.7,1.1.5v.8c0,0,1.2.7,1.2.7l.4,1,1.3.7,1,.8.8.4,1.2,1.3.2.5-.8.8v.7s.5.7.5.7l1.4.5.9.5.5-.2v-.8c.1,0-.4-.6-.4-.6l-1-.4v-.2s.4-.2.4-.2l.6.4,1,1.1v.9c0,0,.3.2.3.2l.3.2.4.4h.7s.2-.4.2-.4v-.6c0,0,.1,0,.1,0h.8c0,0,1,.1,1,.1h1.1c0-.1.6-.5.6-.5l.5.5v.4c0,0,.6.2.6.2l2.1.3.2,1.3.7,1.3.9.5h1s.4-.6.4-.6l-.4-.4.4-.5h.8c0,.1.3.5.3.5l-.2.5.3,1-.2.7.4.6,1.6.2.7-.9.8-.7,1.1.2h.6c0-.1.1-1.1.1-1.1l-.9-.7-1-.6-.4-.8.2-.5,1-.4,1.8-.3,1.7-1.2v-.5c0,0-.4-.2-.4-.2v-.9c.1,0,1.9-.7,1.9-.7h1.4c0,0,.7.3.7.3l1,.9h.8c0,.1,1,1.3,1,1.3l.4.9.6.4.4-.2.8-.7h.6s.3.7.3.7l-.5.4h-.6c0,0-1,1.3-1,1.3l-.5.4.5,1.3,1.3,1.6,1.2.9.2.2.2,1.1v1.1c0,0,1.2,1.2,1.2,1.2h.4s.6-.3.6-.3l.3.5v1.1c.1,0-.6.7-.6.7v.4s.7.7.7.7v1.4s-.8.5-.8.5l-.5.7.5.2.4.9-.2,1.7v2.3c0,0-.8.8-.8.8l-.2.7.7.8,1-.4-.2.5.6.7h.6s0,.4,0,.4l-.6.6-.5,1.1-2.2,1.8-.6,1-1.7,1.3-2.2.4-1.7,1-1.7,2-.3,1.6-.3.9-.4,1.2h-1.7s-2.8,1.6-2.8,1.6h-1.4s-1.5.7-1.5.7l.7,1.2v.7c0,0,.6.7.6.7l-.4,1.3-2.2,1.9-.2.9.5.6-1.1,1.3h-1.3c0,.1-1,1.3-1,1.3l.4.8.4,1v.8c-.1,0,0,1.5,0,1.5l-.7.9-.6.4.7.8,1.3.5,1.2,1.1,1,.6.5-.3.5-1.2.4-.6.9-.7v.9s.1.7.1.7l.2-.5v-.8c0,0,.3,0,.3,0l.4,1.3-.3,1.4.2.7-.6,1.2-1.5,1.1h0c0,0-2.9,1.1-2.9,1.1l-1.1.8-2.1,1.6-.4,1.2-.5.9v.5c.1,0,1,.7,1,.7v.7c.1,0-.6.4-.6.4v.5s1.1.9,1.1.9l.9,1.4v1c-.1,0-1,0-1,0l-.9.3-.4.7,1,.8,1.2.4,1.7,1.3,1.6.2,2.4,1.4,1.2.3.3.8,1.3,1.6v1.4c.1,0,.8,1,.8,1l2.3,1.1,1,1.5.3,1.4.7,1,.2,1.6.8,1.1.9.5,1,1.6.2,1.2-.3.4.9,1.7,1.8,2,.7,1-.3.8.2.7.8.2,2,1.5.5.9.2,1.4.5.6,1.5.5.3,1.2,1.6,2.3.4,1.2,1.9,2.3v.9s-.5.2-.5.2l-.5-.3v.5c0,0,.1.8.1.8v.7s.7,0,.7,0l.8.4.2.6-.3.5,1.9,1.2,1.8.8v.7c0,0,.9.9.9.9h1.1c0,.1.4.6.4.6l.4.8.7.4h1.8s.6-.6.6-.6l-.4.8,1,1,1.9.9.8.7v.7c.1,0,1,.5,1,.5l1.4.5h.5c0-.1,1,.1,1,.1l2.2,1.2,1.5.5h1.1c0,0,.5.3.5.3l.3.7,1.6,1,.9.5,1.2,1,.8.3.4.6v.5c0,0,0,.7,0,.7l1.3.3,1.3.5,1.6,1.4,1.5,1.2,1,.3.2.2.5.4v1.4c0,0,0,1,0,1l.2,1.4.9,3.7v1.4s-.4,1-.4,1l-.6.6.4,1.9.7,1.9.7,1.6v2.6c0,0-.4.7-.4.7l-.3.5v3.5c.1,0,.1.9.1.9l-.9.4-.8.5v2c0,0,.5.5.5.5l.8-.4.5.4-.7.6v5.2c0,0,.7,2,.7,2v1.5c.1,0,0,1.3,0,1.3l-1,1.3v1.3s1,1.7,1,1.7l-.3,1-.2,2.5-.7.9v1.3s.3.7.3.7v.6s-1,1.2-1,1.2v1.3c-.1,0-.7.8-.7.8l.3,1.6-.2.7-1,1.8v.8s1,1.4,1,1.4l.2,1.4.7.9-.9.5-.5,1.1.8.9-.9.8-.8.3v1.3c0,0,.2,1.1.2,1.1v1c.1,0,1.4,3,1.4,3v1.6s-.6.5-.6.5v.9c.1,0,1.3,1.5,1.3,1.5v1.7s-.4,1.2-.4,1.2v.5s.3.9.3.9l-.2.7-.3.8.3.5,1.3,1.6.2.9-.7.8-.9.4-.8,1.4v.4s.4.5.4.5l-.4,1.2-.7.6v.8s-.2,1.5-.2,1.5l-.5.8v.9c0,0-.2.4-.2.4l-.2,1.2-.7.6v.5c0,0,.5.6.5.6l-.7.9v1.4c0,0-.2.8-.2.8l-.8.4v.9s-.4.6-.4.6v.7c0,0,.3.8.3.8v1s-.7.8-.7.8h-.7c0,0-.7-.4-.7-.4l-.9.2v.6c-.1,0,0,1.1,0,1.1v1.5s.8,1,.8,1l1.2.9v1c.1,0,0,1.3,0,1.3l1.8,2.6.3.7.7.6v1.7s-.6,2.2-.6,2.2l-.5.3.2.7-.2.6-.4-.2h-.6c0,0-.4.9-.4.9l.3.9.7.5-.7,2,.2.9-.6.6.6.5-.3.7-.3.3.4.5,1.8,2.4.5.5.4.8,1.7.6,1.7-.3v-1.4c.1,0,.4-.3.4-.3h1.1c0,0,.9,1,.9,1l.4-.2h.8c0,0-.6.6-.6.6l-1.3.9v.6s.9.4.9.4l.7-.3v.7c.1,0,.2,1.7.2,1.7l.5.6-.3.2-.5-.5-.4-.8-.7-.3-.3.5v.5c0,0,1.2.7,1.2.7l.2.5-.8.2-.5.3v1.2c0,0,1,.8,1,.8l-.9.8v.7c0,0,.3.3.3.3l-1,.9.2.5,1.3.7-.4.8-.2,1.2-.7.7v.6c0,0,.5.5.5.5h1.1c0,0,.7.7.7.7v.8c.1,0,1.1.2,1.1.2l.5.6-.2,1.6-.9,1-1.5.8h-.7s-.1.9-.1.9l.4,1.1-.4.5v.6s.5.3.5.3l-.9.8-.7,1.5v1.1c0,0,.6.3.6.3l-.3.6v1.8c-.1,0-.9.3-.9.3l-.2,1-.4-.6.4-.5.4-1.6-.2-.8.2-.5-.5-.2-1.5.4-1.1.6h-.6c0,0,0-.5,0-.5l1.1-.3.7-.4v-1.3s-.4-.3-.4-.3l-1.2.3h-2.1s-.7-.2-.7-.2l-.8.2v.6c0,0,.5,1,.5,1h.4s.2.8.2.8h-.7c0,0-.4,1-.4,1l-.8.5-.4.8-1.5.7v.7c-.1,0,1.5,1.5,1.5,1.5h.9c0,.1.6-.4.6-.4v-.6c0,0-1.1-.3-1.1-.3v-.5c-.1,0,.5-.9.5-.9h1.5c0,0,.3-.4.3-.4l.2,1.1,1.1.6h1.3s.6-.5.6-.5l.7.3.4.6,1.5.7.6.6h-.6c0,0-.3.6-.3.6l.5.6-.7.4-.5.7.5.6,1,.6-.2.3-1-.4-.4-.5h-.6c0,0-.1.8-.1.8l.9.7.4.7,1.6.2,1.6-.6.6.5h.6s1-.4,1-.4l-.4.6.2.4-.4.2h-1.1s-.3.4-.3.4l-.8-.6-1.8.4-.4.7.2.5,1.1.6.2.8,1,.2.9-.4v.5c-.1,0-1,.7-1,.7v.5s.2.4.2.4l-.4.6h-.6s0,.7,0,.7l.6,2.4.6.7v1.1c0,0,.6,1,.6,1l.9.3v-1.6s.7-1.8.7-1.8l.8-.4.3.4h-.6s-.7,2.1-.7,2.1v.5c0,0,1,.5,1,.5h.8s-.3.2-.3.2l-1.4.2-1,.8.2.5-.3.9v.9s-.6.3-.6.3l-.5.8v.6c0,0,1.7,1,1.7,1l2.2.4.9.6-.2.5h-.5s.3,1,.3,1l.4.5.9-.9v.7c0,0-.3.6-.3.6l-.9.3-.7.8.6.3h.8s0,.6,0,.6l.9.9h.5s.7-.6.7-.6v.9c-.1,0,.2.9.2.9h-.6s-.5-.4-.5-.4h-.6c0,0-.3.6-.3.6l1,1.1h.4c0,.1.4,1.2.4,1.2l.5.6,1,.8h.8c0,0-.5-1.4-.5-1.4l.3-.6-.3-.8,1,.6.2.8.7.8.4-1,.7-.6v-.6s-.8-.2-.8-.2l-1.4-.2v-.4s.9,0,.9,0l1.8.5.3.4h1.2c0,0-.3-.8-.3-.8l-1.1-.5-2.1-.2v-.4c0,0,.6-.2.6-.2l1.8.6,1.8.9.3,1.2-.8.7v.7c0,0,.7,1.3.7,1.3v.7c-.1,0-1,.5-1,.5l.4-1.1-.8-1.6-.8-.6-.5.6v.8c0,0,.4.6.4.6l-.5.7-.4-.4-.2-.8h-.6s-.9.5-.9.5h-1.3s-1.1.3-1.1.3l1,.7v1.2c0,0,.5.8.5.8l.2.6-.4.5.2.3h.8c0,.1.5-.6.5-.6l.5.3.9.3v.3s-.8.2-.8.2l-.8.6.2.5h1.4c0,.1,1.6.9,1.6.9l.6-.2.5-.6-.4-1,.3-.7-.3-.8-.4.2h-.8c0-.1.3-.4.3-.4l.7-.4v-.6s.5-.2.5-.2l1.3.4.6-.3.2.5.6.2.3-.5,1.1-.2,1,.3h1.1c0,0,1,0,1,0v.4c0,0-.5.2-.5.2l-.5.6-.7-.2-.7-.5-.8.2-1.8,1.3h-.4s-.5,0-.5,0l-.7.6.2.6-.4.6-.3.4v.4s.5.3.5.3l-.4.4v.4s1.7.5,1.7.5l1.2.9h.4s.2-.4.2-.4l-.2-.8.7-.7h.8c0-.1.1-.5.1-.5l-.9-.9,1.5-.2,1-.7,1-1.2.7-.4.2.3.8.4h.7s.1.2.1.2l-.8.3-.6.8-.2.6-1,.8v1s.3.7.3.7l-.6.6-.9.3v-.4c0,0,.5-.3.5-.3v-1.2s-.3-.2-.3-.2l-.6.3-.2.6h-.4c0-.1-.7,0-.7,0l-.5.5.6.8,1.9,1.6,1.7.3,1.1.5h.7s.8.3.8.3l.5-.5.7-1.1-.6-1.5.2-.7v-.6c0,0,.1-1.3.1-1.3v-1.5c.1,0-.1-1-.1-1l.2-.7,1.5-.7,1.4-1.3.8-.3h1.2s.5-.4.5-.4v-1.2c0,0,.6-.5.6-.5l1.3-.3,1.5.8.7-.3h.2c0,0,1.4.6,1.4.6h.5s-.1-.9-.1-.9l-1.2-.8-2-1.1-.2-1-1-.8-.7.2-.6-.5.9-.4.2-.6-.3-.2v-.7s-.9-2.3-.9-2.3l-1.1-1.5-.2-1.5.7-1.6,1.5-1,.5-.8-.4-.4v-.9s-.5-.6-.5-.6l.8.4.7.7.9.3,1.2-.8.2-.8,1.1-1,.4-.8-.3-1.5-.9-.2-.6.3.3-.6,1-.8.4-1.1.3-1.1,1.4-1.1h1.1s.4-1.2.4-1.2l.9-.9.6-.2.2-.8.9-.4.9-.9-.2-.4v-.6c.1,0,.9-.4.9-.4l-1-.8h-.7s1-.8,1-.8v-.8s-.6-1.2-.6-1.2v-.5s.4-.4.4-.4l-.4-.5-.9-.3-.5.2h-1.1c0,0-1.9,0-1.9,0l-2.3-1.9-1.5-1.2-.8-.2-1.2-.8-1.2-1.8v-1.1s-.7-.8-.7-.8v-.6c0,0,1.4-.8,1.4-.8l.5-.8.4-1.2h.8c0-.1,1-1.1,1-1.1h1.3c0-.1,1.1-1.1,1.1-1.1l1.7-.2,1.1.2,1.9-.2v-.4c0,0-.4-.5-.4-.5l-1.1-.4.2-.4.2-.7,1.6-.9-.3-.3.6-.7v-.5c0,0-1.3-1.3-1.3-1.3l.2-.6v-.7s-.4-.5-.4-.5l-.4-1.3.9-.8.5-.9-.4-.4.7-.6,1.8-.5,1.3-1v-.5s-1.8-.5-1.8-.5h-1.2c0,0-.5-.8-.5-.8l.2-.5,1.1-.7,1.6-.5,1.4.7v.6s-.2.4-.2.4l.4,1,.8.3,2.3-1.1.4-1-.5-1-.7-.8.5-.2.3-.9-.8-1.2h-.9c0,0-1.2.5-1.2.5h-.9s-.6.4-.6.4l.3.2,1,.2v.5c0,0-2.1.5-2.1.5l-.9-.3.6-.5.7-.3-.6-.3h-1.8c0,0-1.3-.6-1.3-.6l-.4-.9v-2.3c0,0-.3-1.8-.3-1.8l-1.2-1v-1.7c0,0,1.3-1,1.3-1h.9s-.4.5-.4.5l.3.2h1.3c0,0,2.2.6,2.2.6l2,1.5,1.8.4h3.3s2-1.1,2-1.1l-.2-.3,1.4-.8.3-.9-.3-.7.3-.5.4-.8-1-.3-.7-1.1v-.9s.5-.7.5-.7l-.2-.5,1.1-.9v-.3s.4,0,.4,0l.2-.6-.2-.9h-1c0,0,.1-.6.1-.6l-.5-.7v-1.7s-.2-.6-.2-.6v-.8s.4-.3.4-.3l.5.6h.8s1.6.5,1.6.5l1.3.7h1.1s1.8-.2,1.8-.2l1.9.3h2.5c0,0,4.1-.9,4.1-.9l3.6-1.2.2-.6.5.5,2.5-.7,3.2-1.6.5-.9-.3-1.1.6-1.5.4-.3.2.5.4-.5.5-1.6,1.2-1.5.3-1v-2.1s-.2-.8-.2-.8h-.3s-.8.6-.8.6h-1.3c0,0-1.5-.9-1.5-.9l-.9-1.4v-.7c0,0,1.6-2.4,1.6-2.4v-1c.1,0-.6-.7-.6-.7l-3-2.1-2.4-.8-2.4-1.7-.6-.9.4-.3v-.9s-.8-.7-.8-.7l.2-.5-.4-1.8.3-2h0s0,2.2,0,2.2l.8,1.8,1.7,2.1h.6c0,.1,1.6,1.5,1.6,1.5l.9.2,2.6-.2h1.5c0,.1,1.4,1,1.4,1h.9c0,.1.9.2.9.2l.3.3-.2.4v.5s1.2,0,1.2,0l1.3-.6,1.7-.2,1.2.4.7.4h.6c0,0,.9.2.9.2h.9c0,0,.6-.3.6-.3l.2-.6.3-.2.5.4,2.2-.6,1.4-1.3.4-.5-.2-.2.6-.8,1.1-.9v-1.4s1-.9,1-.9l.5-.3,2.2-1.5.8-1.5,1-3.4.9-2.3.4-.5-.5-.5-.8-1.2.4-1,.9-.3v-.6c0,0,1-.9,1-.9v-.7s.6.4.6.4h.8c0,.1,1-.8,1-.8v-1c.1,0,.5-.3.5-.3v-1.1c.1,0,.5-.5.5-.5h.6s.4-.9.4-.9l-.3-.7-.6-.6v-1.5c.1,0-.4-.4-.4-.4l.6.2.7,1.2,1.4,1.3h.5s.6-.3.6-.3l.4.3v.9c.1,0-.4,0-.4,0l-.6,1.7-1.4,1.9h-1.2s-.2,1.3-.2,1.3l-.4.7h-.4c0-.1-1.2.4-1.2.4l-.9.6v.5c0,0-1.1.1-1.1.1l-.5.4v.5s1.2.3,1.2.3l3.8-2.4,1.9-1.8,2.8-3.9,1.1-2,1.1-2.5,2.7-4.2,2.7-2.6.4-.8-.2-.3v-.7c.1,0,.7-.1.7-.1l.4-1.1.8-.4-.2-.9.3-.6-.2-.3-.5-.3v-1c.1,0-1-1.4-1-1.4v-.6s.2-.6.2-.6l-.2-.6-.4-1.4-.6-1.5.5-.3,1.5-.2-.4-.8-.7-.4,1.4-.3v-1c0,0-1.4-.6-1.4-.6l1.2-.3.8-.9.6.4,1.9-1.4,1.1-.6v-.5s1.6-1.1,1.6-1.1l1.8-1,2.5-2.3,2.1-.2,1.2-.9,1.3-.8h1.2s.7.6.7.6l.9.2v-.7c0,0,1-1.3,1-1.3l2.5-1.3,1-.2v-.4s-.6-.3-.6-.3l-.8-.2-.4-.6.9-.2,1.5-.7.9.2h1s.7-.5.7-.5h1c0,0,0,.5,0,.5l-1.4.6-1.5.2-.3.3.5.3,2.3-.7,2.7-.9-.2-.4.7-.5h.7c0,.1-.2.7-.2.7,0,0,0,.8.2.9.1,0,1.7.3,1.7.3l1-.4h1.6s1.9.2,1.9.2l1.2-.7v-.5s-.3-.3-.3-.3l.2-.5,2.7-1.5,2.2-.6,1.2-.6.4-.6-.3-.4-.9-1.9.7-1.3.8-.8v-1c0,0,.6-.4.6-.4l1-.6.2-1h-.3c0-.1,1.7-2.4,1.7-2.4l2.3-2.2v-1c0,0-.3-3.1-.3-3.1l-.4-.6.8-1.9.6-.7v-.6c.1,0,1.9-1.1,1.9-1.1l.3-.6-.4-1.8,1-2.2-.2-1.7.4-1.3v-.7c0,0,.5-1.8.5-1.8l-.5-6.7v-1.2s.5-.9.5-.9v-.9s-.5.5-.5.5l-.9-.6v-.6s.9-1.1.9-1.1l-.2-1.1.2-.7.8-.2.2-1.2-.8-1.1-1.5-.6h.4c0-.1.2-.6.2-.6l.3.5.9.5.8.3.4-1.1h.8c0,0,.3.7.3.7l.6.3-.6.7-.9.5-.2.6h.6s1.2-.8,1.2-.8l1.6-.6,2-2.5.9-1.9.3-1.1.8-.6.8-1.7.9-1.4,3.1-1.7.4-.8.9-.2.7-.9,2.7-1.9,2.4-2.6.6-.7,1.5-2.6.4-1.2.7-.8v-.9s-.7-1-.7-1l.3-1ZM149.2,111.5l-.9.6,1.6-1-.7.4Z"/>
  <polygon class="st0" points="270.8 124.5 271.3 125.4 272.1 125.5 272.8 126.3 273 125.5 272 124.5 270.8 124.5"/>
  <polygon class="st0" points="266.9 124 266.6 124.5 267.1 125.5 268.4 125.8 269 125.3 268 125.1 266.9 124"/>
  <path class="st0" d="M296.1,132.1l1.2.3,1-.9-.5-.7-1.8,1.1-.6-.7-1.2.7s.6.4.6.4l1.3-.2Z"/>
  <polygon class="st0" points="261.4 122.9 262.1 123.8 263.3 123.7 262.3 122.9 261.4 122.9"/>
  <polygon class="st0" points="200.2 199.8 199.1 200.6 198.5 201.5 198.5 201.8 198.9 202.2 199.5 202 200 201.3 199.9 200.7 200.3 200.1 200.2 199.8"/>
  <polygon class="st0" points="326 502.2 324.4 502.3 323.6 502.6 324.6 503.3 325.9 502.7 327.1 502.5 328.1 501.6 326.8 501.6 326 502.2"/>
  <polygon class="st0" points="319.1 501.2 317 501.5 315.8 501.4 314.3 500.3 312.7 499.8 312.1 499.3 307.6 497.9 306.3 497.5 306.3 496.4 304.8 495.3 303.3 495.1 302.7 493.5 302 492.5 300.6 492.7 299.3 492.3 299.2 492.2 299.3 492 299.7 491.2 300.6 490.9 301.2 491.5 300.7 489.1 298.8 487.4 297.9 486.3 297.7 486.4 296.1 486.9 295.6 487.2 294.7 486.5 293.9 486.3 293.4 487.1 293.6 487.8 293.5 488.5 292.4 489.3 292.1 489.7 291 489.1 290.2 488.9 289.5 489.8 290.2 490.2 291.1 490.1 290.9 490.8 289.9 491.6 290.3 492.3 290.3 493.4 291.4 494.6 292.3 494.6 293.1 493.8 294.9 493.1 296.1 493.1 296.4 494 295.6 495.1 294.5 495.3 294.2 495.8 292.4 496.5 292.4 497 292.6 497.4 293.6 498.3 294.9 499 295.8 498.9 297.8 499.6 300.6 501.2 301.9 501.5 302.3 501.6 304.4 501.3 306 501.4 307.6 501.1 307.4 501.5 306.4 501.6 304.8 502 302 502.1 301.4 502.1 300.3 501.4 298.3 500.8 295.3 499.9 294 499.5 293.9 499.9 294.3 500.3 293.8 500.6 293.3 500.5 291.4 499.7 290.3 499.2 290 499.5 290.4 499.9 293 501 293.1 501.4 292.4 501.4 292.1 501.5 292.1 501.9 291.6 501.9 291.3 501.3 290.1 500.7 289.7 501 289.8 501.6 289.1 501.7 287.2 501.8 286.7 502 287.2 502.3 287 502.6 286 502.4 284.9 502.7 285.1 503.2 286.4 503.4 287.4 503.4 287.7 503 288.1 502.8 288.7 503.1 289.9 503.7 290.4 503.5 290.8 503.9 290.7 504.4 291.5 504.8 290.6 505.2 290.1 506 290.7 506.7 291.5 506.7 292.2 506.9 293.1 507.8 293.8 507.8 294 507.5 293.3 507 292.1 506.4 292 505.9 292.3 505.8 293.1 506.2 293.8 505.8 294 505.4 293.2 505.2 292.6 504.8 295.1 504.1 296.1 503.7 300.7 504.8 301.3 504.4 301.2 503.9 302.6 503.9 303.2 504 305.2 503.4 307.6 503.7 309.3 503.6 311.7 503.8 313 504.5 314.4 504.9 315.7 504.6 316.8 503.8 317 502.9 318.3 502.6 318.8 503 320.3 502.4 320.1 501.5 319.1 501.2"/>
  <polygon class="st0" points="265.1 484.8 265.1 485.7 264.7 486.1 264.8 486.5 265.4 486.2 265.9 485.1 265.7 484.6 265.1 484.8"/>
  <polygon class="st0" points="265.6 483.6 265.6 482.7 265.1 482.2 264.6 481.8 264.2 481.9 264 482.4 264.2 483.2 264.4 483.4 264.5 483.9 265 484 265.6 483.6"/>
  <polygon class="st0" points="267.3 484 267.1 483.5 265.9 482.9 266.2 483.5 267 484.1 267.3 484"/>
  <path class="st0" d="M270,494.8l-.5.3,1.2.3s-.8-.6-.7-.7Z"/>
  <polygon class="st0" points="267.9 482.2 267.3 481 266.8 481 266.8 482.5 267.4 483.2 268.8 483.7 269.2 483.7 268.8 483.2 267.9 482.2"/>
  <polygon class="st0" points="257.9 460 259 459.9 260.2 460.1 259.7 458.4 258.8 457.7 258.7 456.6 257.6 456.2 257.5 454.6 256.6 455.1 255.6 455.2 255.1 455.7 256.2 456.5 257.5 458.3 257.8 458 258.3 458.4 257.6 458.9 257.9 460"/>
  <polygon class="st0" points="274.8 494.8 275.9 494.9 276.1 494.6 275.8 494.2 275.3 494.1 274.2 493.4 273.7 492.9 272.4 492.9 271.4 492.4 270.5 492.1 269.5 492 268.7 491.6 267.5 490.4 266.8 490 266.5 490.4 266.7 491.4 267.5 492.6 268.7 492.8 270.3 493.4 270.8 494.1 271.7 494.2 272.2 493.9 273.8 494.5 274.8 494.8"/>
  <polygon class="st0" points="269.1 485.2 268.8 484.4 268.1 484.2 267.7 484.5 268.6 485.2 269.1 485.2"/>
  <polygon class="st0" points="267.4 485.3 267.8 485.9 269.1 487.1 269.6 487 269.6 486.3 267.8 485 267.4 485.3"/>
  <polygon class="st0" points="268.4 487.7 267.5 487.9 268 488.3 269.1 488.2 269.3 488.7 269.8 489.2 270.3 489.4 271 488.6 270.6 487.7 269.2 487.8 268.4 487.7"/>
  <polygon class="st0" points="277.7 499.3 277.9 499.4 278.4 499.7 278.9 499.4 278.3 498.9 277.7 499.3"/>
  <polygon class="st0" points="253.7 456 253.4 456.3 253.3 456.9 253.6 458.1 254.7 458.3 255.5 458.8 255.3 459.2 255.8 460.7 256.7 461.2 257.1 460.6 257.2 459.6 256.2 458.3 254.7 456.3 253.7 456"/>
  <polygon class="st0" points="261.9 474.9 261.3 475 261.6 476.3 262.8 477.6 263.8 477.6 264.3 477 263.1 475.5 261.9 474.9"/>
  <polygon class="st0" points="264.5 474.9 263.5 473.6 262.7 473.5 262 473 261.5 473 261.4 473.3 262.4 474.5 263.4 474.9 264.8 476 264.5 474.9"/>
  <polygon class="st0" points="260.2 474.5 260.5 475.5 260.8 475.2 260.9 474.3 260.5 473.8 260.2 474.5"/>
  <polygon class="st0" points="260.6 470.8 259.3 470.6 258.8 470.4 258.5 470.6 258.4 471.2 258 471.6 258.7 472.1 259 472.9 259.5 472.9 260.1 472.5 260.1 471.6 260.6 470.8"/>
  <polygon class="st0" points="263.6 479.8 263.7 479.5 264.6 479.5 264.7 479 263 478 262.3 478 261.5 477.4 260.8 477.5 261.3 478.4 260.7 479.4 260.2 479.8 260.7 480.1 262.4 479.9 263.6 479.8"/>
  <polygon class="st0" points="255.1 460 254.8 459 253.9 458.7 253.5 458.6 253.5 459.9 254.1 460.4 254.2 460.8 254.9 460.7 255.1 460"/>
  <polygon class="st0" points="259.1 469.2 259.7 468.8 260 467.9 260.3 468.7 260.5 469.8 261.1 470.1 261.9 469.6 262 468.1 261.4 466.7 261.7 466.4 261.5 464.6 260.9 463.5 260.3 461.3 259.6 460.8 257.9 460.8 257.3 461.2 257.3 462.4 258 463 257.6 463.8 257.8 464.4 258.3 464.3 258.8 463.8 258.7 464.4 257.8 465 256.6 465.2 257.8 467.2 258.1 468.3 259.1 469.2"/>
  <polygon class="st0" points="255.5 464.5 256.6 463.2 257.3 463 256.8 462.2 255.5 461.6 255.3 461.3 254.6 461.8 255.2 463.5 255.1 464.3 255.5 464.5"/>
  <polygon class="st0" points="258.2 474.3 258.8 473.9 259.6 473.5 258.3 473.5 258.2 474.3"/>
  <polygon class="st0" points="255.4 467 255.9 467.6 255.7 468.1 256.3 468.7 257 468.3 257.3 467.4 256.6 466.5 255.4 467"/>
  <polygon class="st0" points="262.5 481.4 262.7 481.8 263 482 262.5 482.4 262.1 482.9 262.5 483.6 263 483.9 263.7 484.1 263.1 483.3 263.7 482.9 263.8 482 263.4 481.3 262.5 481.4"/>
  <polygon class="st0" points="257.6 433 257.7 431.8 256.5 432.1 257.6 433"/>
  <polygon class="st0" points="253.9 431 254.1 431.5 254.7 431.7 255.6 431.4 255.8 431 255.2 430.4 254.3 430.4 253.9 431"/>
  <polygon class="st0" points="255.4 429.9 256 430.4 256.2 429.9 255.7 429.6 255.4 429.9"/>
  <polygon class="st0" points="255 428 255.7 428.6 256.9 428 255.3 427.6 255 428"/>
  <polygon class="st0" points="253.9 440.5 254.6 440.6 254.4 439.7 253.9 439.7 253.9 440.5"/>
  <polygon class="st0" points="256.8 438.2 255.8 438.3 256.7 439.1 256.8 438.2"/>
  <polygon class="st0" points="257.8 435.6 256.9 435.7 255.6 436 256.2 436.4 257.7 436.4 257.8 435.6"/>
  <polygon class="st0" points="257.2 440.6 256.7 439.8 255.7 439.6 255.4 439.1 254.9 439.7 256 440.8 257.2 440.6"/>
  <polygon class="st0" points="252.4 433.3 252.8 433.7 253.5 433.2 252.9 432.7 252.4 433.3"/>
  <polygon class="st0" points="251.4 427.2 252 427.8 253.5 427.3 252.8 426.8 251.9 426.8 251.4 427.2"/>
  <polygon class="st0" points="250.2 434.3 251.7 434.9 252.1 434.3 251.4 433.7 250.4 433.7 250.2 434.3"/>
  <polygon class="st0" points="255.7 433 255.2 432 254 431.9 254.2 432.5 254.1 433.3 254.8 433.1 255.7 433"/>
  <polygon class="st0" points="282.4 497.8 282.1 497.1 281.2 496.8 280 497.1 279.8 496.5 279 496.2 277.4 495.2 276.2 495.2 275.1 495.6 274.6 495.3 274 494.8 273.1 494.9 272.7 495.3 272.8 495.8 273.9 496.3 274.3 497.2 275.4 497.4 276.5 498.6 277.4 498.8 278.7 498.6 279.3 498.9 279.4 499.6 280.1 500.2 280.9 499.9 280.6 499.4 281.5 498.7 281.5 498.2 281 497.9 281.6 497.7 282.4 497.8"/>
  <polygon class="st0" points="258 433.5 258.8 433.6 258.5 432.5 258 433.5"/>
  <polygon class="st0" points="257.1 428.7 257.9 429.3 257.9 429.8 258.7 429.5 258.6 428.5 257.7 428.3 257.1 428.7"/>
  <path class="st0" d="M255.4,434.9l.2-.4,1.5-.2.6-.5h-2.4c0,0-.3.7-.3.7,0,0,.5.4.5.4Z"/>
  <polygon class="st0" points="282.3 499.7 281.6 500.3 281.6 500.9 282.4 500.7 283 500 283.2 499.7 282.7 499.5 282.3 499.7"/>
  <polygon class="st0" points="257.8 440.1 258.5 439.5 257.3 439.5 257.8 440.1"/>
  <polygon class="st0" points="310.7 509 311 509.5 310.3 510.2 310.8 510.7 311.5 510.8 311.6 510 311.4 509.2 310.7 509"/>
  <path class="st0" d="M308.8,511.2l.5.3.8-.7h-.6s-.7.4-.7.3Z"/>
  <polygon class="st0" points="287.7 505.9 288.4 506.6 289.1 505.9 288.6 505.6 287.7 505.9"/>
  <polygon class="st0" points="309.8 507 310.7 506.5 311.3 506 310.8 505.5 310.6 504.6 309.5 504.4 307.8 504.4 306.4 504.4 304.5 504.3 303 504.8 300.2 505.3 298.8 505.1 298.2 505.2 297.3 505.1 296.4 505.5 297.1 506 297.8 505.7 298.7 506.1 297 506.6 296.1 507 296 507.4 296.9 508 297.8 507.4 297.4 508.2 298.2 508.4 298.5 508.9 299.3 508.7 300.6 509.2 301.1 509.2 301.2 508.5 300.4 508 300.5 507.6 301.7 507.5 302.1 508.4 302.9 508.9 303.8 508.5 304.7 508.7 305.9 509.7 306.4 509.8 306.4 508.9 305.2 508 304.3 507.7 304.6 507.3 304.1 507 302.8 506.7 302.5 506.8 301.4 506.1 302.8 505.9 303.4 505.9 304.4 505.2 305.2 505.2 305.7 506.1 306.2 506.8 307.6 506.7 308.7 506.1 309.3 506.4 309.8 507"/>
  <polygon class="st0" points="288.8 504.5 288 504.1 287.7 504.7 288.1 505 288.7 505 288.8 504.5"/>
  <polygon class="st0" points="290.6 495.4 290.4 494.3 289.7 494 289.6 494.9 289.1 495.9 289.6 496.7 289.2 497.3 289.2 498 290.2 498.5 291.4 498.8 291.7 499.1 292.2 498.7 290.9 497.9 291.7 497.3 291.2 496.7 291.3 496.3 290.6 495.4"/>
  <polygon class="st0" points="258.5 418.1 259.4 418.8 259.9 418.3 259.3 417.8 258.5 418.1"/>
  <polygon class="st0" points="258.9 436.7 257.6 436.6 256.6 437.1 257.2 437.5 257.6 438.6 258.4 439 259 438.2 258.9 436.7"/>
  <polygon class="st0" points="260.5 427.9 259.5 428.5 259.9 429.1 260.5 428.6 260.5 427.9"/>
  <polygon class="st0" points="259.9 434.3 259.9 435.4 260.8 434.7 261.4 434.8 261.9 435 262.7 434.9 263.1 434.3 263.7 433.5 262.8 432.6 262.6 431.9 261.5 431.7 260.3 432.1 259.7 433.5 259.9 434.3"/>
  <polygon class="st0" points="252.4 417.8 252.2 418.5 252.5 419.1 252.8 419.4 253.3 420.6 253.4 423.6 252.8 424.7 254.2 425.2 256.1 425.1 256.1 424.7 256 423.7 256.5 423 257.7 423.3 257.9 423.1 256.7 422.1 257.2 421.7 255.9 420.5 255.8 420 256.5 420 257.6 420.5 257.7 420.3 257.3 419.8 255.9 418.9 257.2 419.3 257.2 418.3 257 418 257.1 416.6 256.1 415.4 255 415 253.7 414.9 252.9 415.5 252.8 416.1 253.2 416.6 253.1 417.3 252.4 417.8"/>
  <polygon class="st0" points="259.6 430.9 259.9 431.4 261 431.3 260 430.6 259.6 430.9"/>
  <polygon class="st0" points="286.2 500.3 286.7 499.9 287.1 500.4 288 500.7 288.7 500.3 288.4 499.7 288.9 499 288.4 498.7 287.9 498.8 287.3 499.2 286.8 498.6 284.8 498.1 284.4 498.3 282.8 498.4 282.8 498.9 283.5 499.3 284 500.1 284.5 499.6 285.5 499.8 286.2 500.3"/>
  <polygon class="st0" points="316.7 131.4 315.5 131.9 316.5 132.3 316.7 131.4"/>
  <polygon class="st0" points="308.7 136.8 310.1 137.3 313 137 314.2 136.1 314.2 135 313.6 134.2 314.9 133 314.9 132.7 312.7 133.4 311.6 133 310.3 133.3 310 133.9 311.1 134.7 311.1 135.6 310 136.5 308.7 136.8"/>
</svg>